<?xml version="1.0" encoding="UTF-8"?>
<svg id="Layer_1" data-name="Layer 1" xmlns="http://www.w3.org/2000/svg" viewBox="0 0 351.64 268.4">
  <defs>
    <style>
      .cls-1 {
        fill: #e9eaeb;
      }

      .cls-2 {
        fill: #3f4d81;
      }

      .cls-3 {
        fill: #61e1ff;
      }

      .cls-4 {
        fill: #f0f;
      }

      .cls-5 {
        fill: none;
        stroke: #3f4d81;
        stroke-linecap: round;
        stroke-linejoin: round;
      }

      .cls-5, .cls-6 {
        stroke-width: 2px;
      }

      .cls-7 {
        fill: #c2d5ec;
      }

      .cls-8, .cls-6 {
        fill: #f8f8f8;
      }

      .cls-9 {
        fill: #39f;
      }

      .cls-6 {
        stroke: #39f;
        stroke-miterlimit: 10;
      }
    </style>
  </defs>
  <path class="cls-7" d="m229.91,51.38c-14.92-18.4-41.21-36.37-69.05-36.37-45.51,0-80.72,38.04-80.72,77.64,0,1.65.09,3.27.21,4.89-.38,0-.76-.03-1.15-.03-49,0-76.81,22.36-76.81,59.27,0,25.85,9.02,53.7,41.56,66.94,10.83,25.49,39.01,43.67,72.07,43.67h121.09c68.58,0,112.38-47.86,112.38-107.53s-52.59-106.89-119.58-108.48Z"/>
  <polygon class="cls-8" points="1 267.39 136.06 267.39 136.06 182.56 115.36 166.33 136.06 150.13 136.06 24.59 1 24.59 1 267.39"/>
  <rect class="cls-1" x="16.03" y="1" width="104.99" height="23.59"/>
  <polygon class="cls-2" points="136.06 150.13 154.09 136 154.09 24.59 136.06 24.59 136.06 150.13"/>
  <polygon class="cls-2" points="136.06 267.39 154.09 267.39 154.09 196.69 136.06 182.56 136.06 267.39"/>
  <rect class="cls-2" x="121.02" y="1" width="18.04" height="23.59"/>
  <path class="cls-9" d="m53.97,54.91h-19.25c-3.37,0-6.1,2.73-6.09,6.1l.03,20.03c0,3.16,2.57,5.71,5.72,5.71h20c3.36,0,6.09-2.72,6.09-6.08l.03-19.22c0-3.61-2.92-6.54-6.53-6.54Z"/>
  <path class="cls-9" d="m105.59,54.91h-19.25c-3.37,0-6.1,2.73-6.09,6.1l.03,20.03c0,3.16,2.57,5.71,5.72,5.71h20c3.36,0,6.09-2.72,6.09-6.08l.03-19.22c0-3.61-2.92-6.54-6.53-6.54Z"/>
  <path class="cls-9" d="m53.97,107.75h-19.25c-3.37,0-6.1,2.73-6.09,6.1l.03,20.03c0,3.16,2.57,5.71,5.72,5.71h20c3.36,0,6.09-2.72,6.09-6.08l.03-19.22c0-3.61-2.92-6.54-6.53-6.54Z"/>
  <path class="cls-9" d="m105.59,107.75h-19.25c-3.37,0-6.1,2.73-6.09,6.1l.03,20.03c0,3.16,2.57,5.71,5.72,5.71h20c3.36,0,6.09-2.72,6.09-6.08l.03-19.22c0-3.61-2.92-6.54-6.53-6.54Z"/>
  <rect class="cls-9" x="44.94" y="215.36" width="47.17" height="52.03"/>
  <path class="cls-9" d="m53.97,160.58h-19.25c-3.37,0-6.1,2.73-6.09,6.1l.03,20.03c0,3.16,2.57,5.71,5.72,5.71h20c3.36,0,6.09-2.72,6.09-6.08l.03-19.22c0-3.61-2.92-6.54-6.53-6.54Z"/>
  <path class="cls-9" d="m105.59,160.58h-19.25c-3.37,0-6.1,2.73-6.09,6.1l.03,20.03c0,3.16,2.57,5.71,5.72,5.71h20c3.36,0,6.09-2.72,6.09-6.08l.03-19.22c0-3.61-2.92-6.54-6.53-6.54Z"/>
  <rect class="cls-8" x="44.94" y="215.36" width="13.18" height="52.03"/>
  <rect class="cls-8" x="196.13" y="24.59" width="136.47" height="242.81"/>
  <rect class="cls-1" x="212.58" y="1" width="104.99" height="23.59"/>
  <rect class="cls-2" x="332.61" y="24.59" width="18.04" height="242.81"/>
  <rect class="cls-2" x="317.57" y="1" width="18.04" height="23.59"/>
  <path class="cls-4" d="m251.1,54.91h-19.25c-3.37,0-6.1,2.73-6.09,6.1l.03,20.03c0,3.16,2.57,5.71,5.72,5.71h20c3.36,0,6.09-2.72,6.09-6.08l.03-19.22c0-3.61-2.92-6.54-6.53-6.54Z"/>
  <path class="cls-4" d="m302.72,54.91h-19.25c-3.37,0-6.1,2.73-6.09,6.1l.03,20.03c0,3.16,2.57,5.71,5.72,5.71h20c3.36,0,6.09-2.72,6.09-6.08l.03-19.22c0-3.61-2.92-6.54-6.53-6.54Z"/>
  <path class="cls-4" d="m251.1,107.75h-19.25c-3.37,0-6.1,2.73-6.09,6.1l.03,20.03c0,3.16,2.57,5.71,5.72,5.71h20c3.36,0,6.09-2.72,6.09-6.08l.03-19.22c0-3.61-2.92-6.54-6.53-6.54Z"/>
  <path class="cls-4" d="m302.72,107.75h-19.25c-3.37,0-6.1,2.73-6.09,6.1l.03,20.03c0,3.16,2.57,5.71,5.72,5.71h20c3.36,0,6.09-2.72,6.09-6.08l.03-19.22c0-3.61-2.92-6.54-6.53-6.54Z"/>
  <rect class="cls-4" x="242.07" y="215.36" width="47.17" height="52.03"/>
  <path class="cls-4" d="m251.1,160.58h-19.25c-3.37,0-6.1,2.73-6.09,6.1l.03,20.03c0,3.16,2.57,5.71,5.72,5.71h20c3.36,0,6.09-2.72,6.09-6.08l.03-19.22c0-3.61-2.92-6.54-6.53-6.54Z"/>
  <path class="cls-4" d="m302.72,160.58h-19.25c-3.37,0-6.1,2.73-6.09,6.1l.03,20.03c0,3.16,2.57,5.71,5.72,5.71h20c3.36,0,6.09-2.72,6.09-6.08l.03-19.22c0-3.61-2.92-6.54-6.53-6.54Z"/>
  <rect class="cls-8" x="242.07" y="215.36" width="13.18" height="52.03"/>
  <polygon class="cls-3" points="196.13 152.23 154.09 152.23 154.09 136 136.06 150.13 115.36 166.33 136.06 182.56 154.09 196.69 154.09 180.46 196.13 180.46 196.13 196.69 216 181.12 234.87 166.33 196.13 136 196.13 152.23"/>
  <line class="cls-5" x1="1" y1="267.39" x2="350.64" y2="267.39"/>
  <polygon class="cls-5" points="1 267.39 136.06 267.39 136.06 182.56 115.36 166.33 136.06 150.13 136.06 24.59 1 24.59 1 267.39"/>
  <rect class="cls-5" x="16.03" y="1" width="104.99" height="23.59"/>
  <polygon class="cls-5" points="136.06 150.13 154.09 136 154.09 24.59 136.06 24.59 136.06 150.13"/>
  <polygon class="cls-5" points="136.06 267.39 154.09 267.39 154.09 196.69 136.06 182.56 136.06 267.39"/>
  <rect class="cls-5" x="121.02" y="1" width="18.04" height="23.59"/>
  <path class="cls-5" d="m28.63,59.01v22.07c0,3.13,2.54,5.68,5.68,5.68h22.07"/>
  <path class="cls-5" d="m80.25,59.01v22.07c0,3.13,2.54,5.68,5.68,5.68h22.07"/>
  <path class="cls-5" d="m28.63,111.84v22.07c0,3.13,2.54,5.68,5.68,5.68h22.07"/>
  <path class="cls-5" d="m80.25,111.84v22.07c0,3.13,2.54,5.68,5.68,5.68h22.07"/>
  <g>
    <path class="cls-5" d="m28.63,164.68v22.07c0,3.13,2.54,5.68,5.68,5.68h22.07"/>
    <path class="cls-5" d="m80.25,164.68v22.07c0,3.13,2.54,5.68,5.68,5.68h22.07"/>
  </g>
  <rect class="cls-5" x="44.94" y="215.36" width="47.17" height="52.03"/>
  <polygon class="cls-5" points="196.13 136 214.17 150.13 234.87 166.33 214.17 182.56 196.13 196.69 196.13 267.39 332.61 267.39 332.61 24.59 196.13 24.59 196.13 136"/>
  <rect class="cls-5" x="212.58" y="1" width="104.99" height="23.59"/>
  <rect class="cls-5" x="317.57" y="1" width="18.04" height="23.59"/>
  <path class="cls-5" d="m225.88,59.01v22.07c0,3.13,2.54,5.68,5.68,5.68h22.07"/>
  <path class="cls-5" d="m276.79,59.01v22.07c0,3.13,2.54,5.68,5.68,5.68h22.07"/>
  <path class="cls-5" d="m225.88,111.84v22.07c0,3.13,2.54,5.68,5.68,5.68h22.07"/>
  <path class="cls-5" d="m276.79,111.84v22.07c0,3.13,2.54,5.68,5.68,5.68h22.07"/>
  <g>
    <path class="cls-5" d="m225.88,175.58v11.17c0,3.13,2.54,5.68,5.68,5.68h22.07"/>
    <path class="cls-5" d="m277.49,164.68v22.07c0,3.13,2.54,5.68,5.68,5.68h22.07"/>
  </g>
  <rect class="cls-5" x="242.07" y="215.36" width="47.17" height="52.03"/>
  <polygon class="cls-6" points="196.08 136 196.08 152.23 154.09 152.23 154.09 136 136.06 150.13 115.36 166.33 136.06 182.56 154.09 196.69 154.09 180.46 196.08 180.46 196.08 196.69 214.11 182.56 234.81 166.33 214.11 150.13 196.08 136"/>
  <polygon class="cls-5" points="350.64 24.59 332.61 24.59 332.61 150.13 332.61 150.13 332.61 267.4 350.64 267.4 350.64 84.25 350.64 84.25 350.64 24.59"/>
</svg>