<?xml version="1.0" encoding="UTF-8"?>
<svg id="Layer_1" data-name="Layer 1" xmlns="http://www.w3.org/2000/svg" viewBox="0 0 493.31 376.33">
  <defs>
    <style>
      .cls-1 {
        fill: #3f4d81;
      }

      .cls-2 {
        fill: #f0f;
      }

      .cls-3 {
        fill: none;
        stroke: #3f4d81;
        stroke-linecap: round;
        stroke-linejoin: round;
      }

      .cls-3, .cls-4 {
        stroke-width: 2px;
      }

      .cls-5, .cls-4 {
        fill: #f8f8f8;
      }

      .cls-6 {
        fill: #39f;
      }

      .cls-4 {
        stroke: #39f;
        stroke-miterlimit: 10;
      }
    </style>
  </defs>
  <path class="cls-6" d="m427.7,39.99c-8.58,0-16.49,2.96-22.77,7.92,8.54,6.71,14,17.16,14,28.85s-5.46,22.15-14,28.85c6.28,4.95,14.19,7.92,22.77,7.92,20.32,0,36.77-16.45,36.77-36.77s-16.45-36.77-36.77-36.77Z"/>
  <path class="cls-6" d="m445.13,130.5h-31.66c-2.38,0-4.68.16-6.94.51,22.73,3.35,40.24,23.01,40.24,46.67v57.48c0,9.36-7.6,16.96-17,16.96h-10.92v106.26c0,7.76-5.22,14.31-12.32,16.3,1.48.43,3.04.66,4.64.66h36.26c9.36,0,16.96-7.56,16.96-16.96v-106.26h10.92c9.4,0,17-7.6,17-16.96v-57.48c0-26.05-21.17-47.18-47.18-47.18Z"/>
  <path class="cls-2" d="m404.93,47.91c-6.24-4.95-14.15-7.92-22.77-7.92s-16.49,2.96-22.77,7.92c8.54,6.71,14,17.16,14,28.85s-5.46,22.15-14,28.85c6.28,4.95,14.19,7.92,22.77,7.92s16.53-2.96,22.77-7.92c8.54-6.71,14-17.16,14-28.85s-5.46-22.15-14-28.85Z"/>
  <path class="cls-2" d="m406.53,131c-2.26-.35-4.56-.51-6.94-.51h-31.66c-2.38,0-4.68.16-6.94.51,8.58,1.25,16.38,4.84,22.77,10.1,10.65,8.62,17.47,21.8,17.47,36.58v57.48c0,9.36-7.6,16.96-17,16.96h-10.92v106.26c0,7.76-5.22,14.31-12.32,16.3,1.48.43,3.04.66,4.64.66h36.26c1.6,0,3.16-.23,4.64-.66,7.1-1.99,12.32-8.54,12.32-16.3v-106.26h10.92c9.4,0,17-7.6,17-16.96v-57.48c0-23.67-17.51-43.32-40.24-46.67Z"/>
  <path class="cls-6" d="m359.39,47.91c-6.24-4.95-14.15-7.92-22.77-7.92-20.28,0-36.77,16.45-36.77,36.77s16.49,36.77,36.77,36.77c8.62,0,16.53-2.96,22.77-7.92,8.54-6.71,14-17.16,14-28.85s-5.46-22.15-14-28.85Z"/>
  <path class="cls-6" d="m383.76,141.1c-6.39-5.26-14.19-8.85-22.77-10.1-2.26-.35-4.56-.51-6.94-.51h-31.66c-26.01,0-47.18,21.13-47.18,47.18v13.02l54.43,42.62-26.52,20.78v104.27c0,9.4,7.6,16.96,16.96,16.96h36.26c1.6,0,3.16-.23,4.64-.66,7.1-1.99,12.32-8.54,12.32-16.3v-106.26h10.92c9.4,0,17-7.6,17-16.96v-57.48c0-14.78-6.82-27.96-17.47-36.58Z"/>
  <polygon class="cls-1" points="190.78 210.55 216.12 190.7 216.12 34.14 190.78 34.14 190.78 210.55"/>
  <polygon class="cls-1" points="190.78 375.33 216.12 375.33 216.12 275.98 190.78 256.13 190.78 375.33"/>
  <rect class="cls-1" x="169.64" y="1" width="25.35" height="33.14"/>
  <g>
    <path class="cls-6" d="m75.43,76.76h-27.05c-4.74,0-8.57,3.84-8.56,8.58l.05,28.14c0,4.43,3.6,8.03,8.04,8.03h28.1c4.72,0,8.56-3.83,8.56-8.55l.04-27.01c0-5.07-4.1-9.19-9.18-9.19Z"/>
    <path class="cls-6" d="m147.97,76.76h-27.05c-4.74,0-8.57,3.84-8.56,8.58l.05,28.14c0,4.43,3.6,8.03,8.04,8.03h28.1c4.72,0,8.56-3.83,8.56-8.55l.04-27.01c0-5.07-4.1-9.19-9.18-9.19Z"/>
  </g>
  <g>
    <path class="cls-6" d="m75.43,151h-27.05c-4.74,0-8.57,3.84-8.56,8.58l.05,28.14c0,4.43,3.6,8.03,8.04,8.03h28.1c4.72,0,8.56-3.83,8.56-8.55l.04-27.01c0-5.07-4.1-9.19-9.18-9.19Z"/>
    <path class="cls-6" d="m147.97,151h-27.05c-4.74,0-8.57,3.84-8.56,8.58l.05,28.14c0,4.43,3.6,8.03,8.04,8.03h28.1c4.72,0,8.56-3.83,8.56-8.55l.04-27.01c0-5.07-4.1-9.19-9.18-9.19Z"/>
  </g>
  <rect class="cls-6" x="62.74" y="302.22" width="66.29" height="73.11"/>
  <g>
    <path class="cls-1" d="m427.7,39.99c-2.34,0-4.68.23-6.9.66,16.96,3.28,29.75,18.21,29.75,36.11s-12.79,32.83-29.75,36.11c2.22.43,4.56.66,6.9.66,20.32,0,36.77-16.45,36.77-36.77s-16.45-36.77-36.77-36.77Z"/>
    <path class="cls-1" d="m445.13,130.5h-13.92c26.01,0,47.18,21.13,47.18,47.18v57.48c0,9.36-7.6,16.96-17,16.96h-10.92v106.26c0,9.4-7.6,16.96-16.96,16.96h13.92c9.36,0,16.96-7.56,16.96-16.96v-106.26h10.92c9.4,0,17-7.6,17-16.96v-57.48c0-26.05-21.17-47.18-47.18-47.18Z"/>
  </g>
  <g>
    <path class="cls-1" d="m382.16,39.99c-2.34,0-4.68.23-6.9.66,16.96,3.28,29.75,18.21,29.75,36.11s-12.79,32.83-29.75,36.11c2.22.43,4.56.66,6.9.66,20.32,0,36.77-16.45,36.77-36.77s-16.45-36.77-36.77-36.77Z"/>
    <path class="cls-1" d="m399.59,130.5h-13.92c26.01,0,47.18,21.13,47.18,47.18v57.48c0,9.36-7.6,16.96-17,16.96h-10.92v106.26c0,9.4-7.6,16.96-16.96,16.96h13.92c9.36,0,16.96-7.56,16.96-16.96v-106.26h10.92c9.4,0,17-7.6,17-16.96v-57.48c0-26.05-21.17-47.18-47.18-47.18Z"/>
  </g>
  <g>
    <path class="cls-1" d="m336.52,39.99c-2.34,0-4.68.23-6.9.66,16.96,3.28,29.75,18.21,29.75,36.11s-12.79,32.83-29.75,36.11c2.22.43,4.56.66,6.9.66,20.32,0,36.77-16.45,36.77-36.77s-16.45-36.77-36.77-36.77Z"/>
    <path class="cls-1" d="m353.95,130.5h-13.92c26.01,0,47.18,21.13,47.18,47.18v57.48c0,9.36-7.6,16.96-17,16.96h-10.92v106.26c0,9.4-7.6,16.96-16.96,16.96h13.92c9.36,0,16.96-7.56,16.96-16.96v-106.26h10.92c9.4,0,17-7.6,17-16.96v-57.48c0-26.05-21.17-47.18-47.18-47.18Z"/>
  </g>
  <g>
    <path class="cls-6" d="m75.43,225.25h-27.05c-4.74,0-8.57,3.84-8.56,8.58l.05,28.14c0,4.43,3.6,8.03,8.04,8.03h28.1c4.72,0,8.56-3.83,8.56-8.55l.04-27.01c0-5.07-4.1-9.19-9.18-9.19Z"/>
    <path class="cls-6" d="m147.97,225.25h-27.05c-4.74,0-8.57,3.84-8.56,8.58l.05,28.14c0,4.43,3.6,8.03,8.04,8.03h28.1c4.72,0,8.56-3.83,8.56-8.55l.04-27.01c0-5.07-4.1-9.19-9.18-9.19Z"/>
  </g>
  <g>
    <path class="cls-5" d="m330.3,47.91c4.17-3.31,9.12-5.77,14.54-6.94-2.65-.66-5.38-.97-8.23-.97-20.28,0-36.77,16.45-36.77,36.77s16.49,36.77,36.77,36.77c2.85,0,5.58-.31,8.23-.97-5.42-1.17-10.37-3.63-14.54-6.94-8.54-6.71-14-17.16-14-28.85s5.46-22.15,14-28.85Z"/>
    <path class="cls-5" d="m320.28,358.37v-117.71l-14.62,11.46-2.53,1.99v104.27c0,9.4,7.6,16.96,16.96,16.96h17.16c-1.6,0-3.16-.23-4.64-.66-7.1-1.99-12.32-8.54-12.32-16.3Z"/>
    <path class="cls-5" d="m275.2,177.68v13.02l17.16,13.43v-26.45c0-14.78,6.82-27.96,17.47-36.58,6.39-5.26,14.19-8.85,22.77-10.1,2.26-.35,4.56-.51,6.94-.51h-17.16c-26.01,0-47.18,21.13-47.18,47.18Z"/>
  </g>
  <rect class="cls-5" x="62.74" y="302.22" width="18.52" height="73.11"/>
  <g>
    <path class="cls-3" d="m427.7,39.99c-8.58,0-16.49,2.96-22.77,7.92,8.54,6.71,14,17.16,14,28.85s-5.46,22.15-14,28.85c6.28,4.95,14.19,7.92,22.77,7.92,20.32,0,36.77-16.45,36.77-36.77s-16.45-36.77-36.77-36.77Z"/>
    <path class="cls-3" d="m445.13,130.5h-31.66c-2.38,0-4.68.16-6.94.51,22.73,3.35,40.24,23.01,40.24,46.67v57.48c0,9.36-7.6,16.96-17,16.96h-10.92v106.26c0,7.76-5.22,14.31-12.32,16.3,1.48.43,3.04.66,4.64.66h36.26c9.36,0,16.96-7.56,16.96-16.96v-106.26h10.92c9.4,0,17-7.6,17-16.96v-57.48c0-26.05-21.17-47.18-47.18-47.18Z"/>
  </g>
  <g>
    <path class="cls-3" d="m404.93,47.91c-6.24-4.95-14.15-7.92-22.77-7.92s-16.49,2.96-22.77,7.92c8.54,6.71,14,17.16,14,28.85s-5.46,22.15-14,28.85c6.28,4.95,14.19,7.92,22.77,7.92s16.53-2.96,22.77-7.92c8.54-6.71,14-17.16,14-28.85s-5.46-22.15-14-28.85Z"/>
    <path class="cls-3" d="m406.53,131c-2.26-.35-4.56-.51-6.94-.51h-31.66c-2.38,0-4.68.16-6.94.51,8.58,1.25,16.38,4.84,22.77,10.1,10.65,8.62,17.47,21.8,17.47,36.58v57.48c0,9.36-7.6,16.96-17,16.96h-10.92v106.26c0,7.76-5.22,14.31-12.32,16.3,1.48.43,3.04.66,4.64.66h36.26c1.6,0,3.16-.23,4.64-.66,7.1-1.99,12.32-8.54,12.32-16.3v-106.26h10.92c9.4,0,17-7.6,17-16.96v-57.48c0-23.67-17.51-43.32-40.24-46.67Z"/>
  </g>
  <g>
    <path class="cls-3" d="m359.39,47.91c-6.24-4.95-14.15-7.92-22.77-7.92-20.28,0-36.77,16.45-36.77,36.77s16.49,36.77,36.77,36.77c8.62,0,16.53-2.96,22.77-7.92,8.54-6.71,14-17.16,14-28.85s-5.46-22.15-14-28.85Z"/>
    <path class="cls-3" d="m383.76,141.1c-6.39-5.26-14.19-8.85-22.77-10.1-2.26-.35-4.56-.51-6.94-.51h-31.66c-26.01,0-47.18,21.13-47.18,47.18v13.02l54.43,42.62-26.52,20.78v104.27c0,9.4,7.6,16.96,16.96,16.96h36.26c1.6,0,3.16-.23,4.64-.66,7.1-1.99,12.32-8.54,12.32-16.3v-106.26h10.92c9.4,0,17-7.6,17-16.96v-57.48c0-14.78-6.82-27.96-17.47-36.58Z"/>
  </g>
  <polygon class="cls-3" points="1 375.33 190.78 375.33 190.78 256.13 161.69 233.32 190.78 210.55 190.78 34.14 1 34.14 1 375.33"/>
  <rect class="cls-3" x="22.12" y="1" width="147.52" height="33.14"/>
  <polygon class="cls-3" points="190.78 210.55 216.12 190.7 216.12 34.14 190.78 34.14 190.78 210.55"/>
  <polygon class="cls-3" points="190.78 375.33 216.12 375.33 216.12 275.98 190.78 256.13 190.78 375.33"/>
  <rect class="cls-3" x="169.64" y="1" width="25.35" height="33.14"/>
  <path class="cls-3" d="m39.83,82.51v31.02c0,4.4,3.57,7.98,7.98,7.98h31.02"/>
  <path class="cls-3" d="m112.35,82.51v31.02c0,4.4,3.57,7.98,7.98,7.98h31.02"/>
  <path class="cls-3" d="m39.83,156.76v31.02c0,4.4,3.57,7.98,7.98,7.98h31.02"/>
  <path class="cls-3" d="m112.35,156.76v31.02c0,4.4,3.57,7.98,7.98,7.98h31.02"/>
  <g>
    <path class="cls-3" d="m39.83,231v31.02c0,4.4,3.57,7.98,7.98,7.98h31.02"/>
    <path class="cls-3" d="m112.35,231v31.02c0,4.4,3.57,7.98,7.98,7.98h31.02"/>
  </g>
  <rect class="cls-3" x="62.74" y="302.22" width="66.29" height="73.11"/>
  <polygon class="cls-4" points="216.35 253.5 275.42 252.83 275.68 275.64 300.8 255.51 329.63 232.41 300.28 209.93 274.71 190.37 274.97 213.18 215.9 213.85 215.64 191.04 187.97 213.23 161.7 234.31 216.61 276.31 216.35 253.5"/>
  <g>
    <path class="cls-3" d="m427.7,39.99c-2.34,0-4.68.23-6.9.66,16.96,3.28,29.75,18.21,29.75,36.11s-12.79,32.83-29.75,36.11c2.22.43,4.56.66,6.9.66,20.32,0,36.77-16.45,36.77-36.77s-16.45-36.77-36.77-36.77Z"/>
    <path class="cls-3" d="m445.13,130.5h-13.92c26.01,0,47.18,21.13,47.18,47.18v57.48c0,9.36-7.6,16.96-17,16.96h-10.92v106.26c0,9.4-7.6,16.96-16.96,16.96h13.92c9.36,0,16.96-7.56,16.96-16.96v-106.26h10.92c9.4,0,17-7.6,17-16.96v-57.48c0-26.05-21.17-47.18-47.18-47.18Z"/>
  </g>
  <g>
    <path class="cls-3" d="m382.16,39.99c-2.34,0-4.68.23-6.9.66,16.96,3.28,29.75,18.21,29.75,36.11s-12.79,32.83-29.75,36.11c2.22.43,4.56.66,6.9.66,20.32,0,36.77-16.45,36.77-36.77s-16.45-36.77-36.77-36.77Z"/>
    <path class="cls-3" d="m399.59,130.5h-13.92c26.01,0,47.18,21.13,47.18,47.18v57.48c0,9.36-7.6,16.96-17,16.96h-10.92v106.26c0,9.4-7.6,16.96-16.96,16.96h13.92c9.36,0,16.96-7.56,16.96-16.96v-106.26h10.92c9.4,0,17-7.6,17-16.96v-57.48c0-26.05-21.17-47.18-47.18-47.18Z"/>
  </g>
  <g>
    <path class="cls-3" d="m336.52,39.99c-2.34,0-4.68.23-6.9.66,16.96,3.28,29.75,18.21,29.75,36.11s-12.79,32.83-29.75,36.11c2.22.43,4.56.66,6.9.66,20.32,0,36.77-16.45,36.77-36.77s-16.45-36.77-36.77-36.77Z"/>
    <path class="cls-3" d="m353.95,130.5h-13.92c26.01,0,47.18,21.13,47.18,47.18v57.48c0,9.36-7.6,16.96-17,16.96h-10.92v106.26c0,9.4-7.6,16.96-16.96,16.96h13.92c9.36,0,16.96-7.56,16.96-16.96v-106.26h10.92c9.4,0,17-7.6,17-16.96v-57.48c0-26.05-21.17-47.18-47.18-47.18Z"/>
  </g>
</svg>