<?xml version="1.0" encoding="UTF-8"?>
<svg id="Capa_1" data-name="Capa 1" xmlns="http://www.w3.org/2000/svg" xmlns:xlink="http://www.w3.org/1999/xlink" viewBox="0 0 766.48 799.98">
  <defs>
    <style>
      .cls-1 {
        fill: url(#linear-gradient);
      }
    </style>
    <linearGradient id="linear-gradient" x1="-67.81" y1="149.43" x2="706.12" y2="596.26" gradientUnits="userSpaceOnUse">
      <stop offset="0" stop-color="#3c9eee"/>
      <stop offset="1" stop-color="#f0f"/>
    </linearGradient>
  </defs>
  <g id="Layer_1" data-name="Layer 1">
    <g>
      <path class="cls-1" d="m87.4,655.66V87.42h458.93v477.23l87.44-72.22V43.71c0-24.14-19.56-43.71-43.69-43.71H43.69C19.56,0,0,19.57,0,43.71v655.64c0,24.14,19.56,43.71,43.69,43.71h381.41l-61.79-87.4H87.4Z"/>
      <path class="cls-1" d="m759.63,469.94c-8.05-7.59-20.43-7.95-28.9-.97l-200.48,165.69-133.6-80.15c-8.87-5.31-20.22-3.73-27.29,3.9-7.01,7.56-7.78,19.01-1.8,27.46l144.78,204.89c4.05,5.74,10.64,9.17,17.65,9.24h.2c6.94,0,13.5-3.29,17.62-8.94l214.47-292.31c6.47-8.87,5.36-21.21-2.66-28.8Z"/>
      <path class="cls-1" d="m448.02,152.99H185.74c-24.14,0-43.69,19.57-43.69,43.71s19.56,43.71,43.69,43.71h262.26c24.14,0,43.68-19.57,43.68-43.71s-19.52-43.71-43.66-43.71Z"/>
      <path class="cls-1" d="m448.02,284.1H185.74c-24.14,0-43.69,19.57-43.69,43.71s19.56,43.71,43.69,43.71h262.26c24.14,0,43.68-19.56,43.68-43.71.05-24.14-19.52-43.71-43.66-43.71Z"/>
      <path class="cls-1" d="m448.02,415.23H185.74c-24.14,0-43.69,19.57-43.69,43.71s19.56,43.71,43.69,43.71h262.26c24.14,0,43.68-19.57,43.68-43.71.05-24.14-19.52-43.71-43.66-43.71Z"/>
    </g>
  </g>
</svg>