<?xml version="1.0" encoding="UTF-8"?>
<svg id="Layer_1" data-name="Layer 1" xmlns="http://www.w3.org/2000/svg" xmlns:xlink="http://www.w3.org/1999/xlink" viewBox="0 0 712.51 332.98">
  <defs>
    <style>
      .cls-1 {
        fill: url(#linear-gradient-2);
      }

      .cls-2 {
        fill: #fff;
      }

      .cls-3 {
        fill: url(#linear-gradient-6);
      }

      .cls-4 {
        fill: url(#linear-gradient-11);
      }

      .cls-5 {
        fill: #dfebef;
      }

      .cls-6 {
        fill: url(#linear-gradient-10);
      }

      .cls-7 {
        fill: url(#linear-gradient-5);
      }

      .cls-8 {
        fill: url(#linear-gradient-7);
      }

      .cls-9 {
        fill: url(#linear-gradient-9);
      }

      .cls-10 {
        fill: url(#linear-gradient-3);
      }

      .cls-11 {
        fill: #283149;
      }

      .cls-12 {
        fill: url(#linear-gradient);
      }

      .cls-13 {
        fill: url(#linear-gradient-4);
      }

      .cls-14 {
        fill: url(#linear-gradient-8);
      }
    </style>
    <linearGradient id="linear-gradient" x1="254.39" y1="200.81" x2="479.2" y2="200.81" gradientUnits="userSpaceOnUse">
      <stop offset="0" stop-color="#3b9fee"/>
      <stop offset=".08" stop-color="#4299ee"/>
      <stop offset=".2" stop-color="#5688f0"/>
      <stop offset=".34" stop-color="#776df3"/>
      <stop offset=".5" stop-color="#a548f7"/>
      <stop offset=".68" stop-color="#df19fc"/>
      <stop offset=".76" stop-color="#f0f"/>
      <stop offset=".8" stop-color="#f0f"/>
      <stop offset="1" stop-color="#f0f"/>
    </linearGradient>
    <linearGradient id="linear-gradient-2" x1="482.33" y1="227.16" x2="551" y2="227.16" xlink:href="#linear-gradient"/>
    <linearGradient id="linear-gradient-3" x1="544.9" y1="242.47" x2="614.11" y2="242.47" xlink:href="#linear-gradient"/>
    <linearGradient id="linear-gradient-4" x1="462.74" y1="296.33" x2="597.09" y2="296.33" xlink:href="#linear-gradient"/>
    <linearGradient id="linear-gradient-5" x1="79.42" y1="249.12" x2="219.96" y2="249.12" xlink:href="#linear-gradient"/>
    <linearGradient id="linear-gradient-6" x1="211.87" y1="145.62" x2="242.63" y2="145.62" xlink:href="#linear-gradient"/>
    <linearGradient id="linear-gradient-7" x1="475.5" y1="315.1" x2="612" y2="315.1" xlink:href="#linear-gradient"/>
    <linearGradient id="linear-gradient-8" x1="420.76" y1="68.87" x2="467.57" y2="68.87" xlink:href="#linear-gradient"/>
    <linearGradient id="linear-gradient-9" x1="255.27" y1="25.69" x2="300.42" y2="25.69" xlink:href="#linear-gradient"/>
    <linearGradient id="linear-gradient-10" x1="122.54" y1="108.87" x2="185.27" y2="108.87" xlink:href="#linear-gradient"/>
    <linearGradient id="linear-gradient-11" x1="517.92" y1="250.21" x2="560.16" y2="250.21" xlink:href="#linear-gradient"/>
  </defs>
  <path class="cls-5" d="m23.23,329.83h456.76l13.41-11.98,92.45-1.04,13.02,13.02h84.44c-.2-19.68-5.87-38.05-15.56-53.66,5.09-13.2,7.89-27.54,7.89-42.54,0-30.09-11.24-57.54-29.75-78.41,5.28-10.44,8.27-22.24,8.27-34.74,0-42.62-34.55-77.16-77.16-77.16-28.17,0-52.81,15.11-66.28,37.65-17.61-23.69-45.81-39.04-77.6-39.04-14.35,0-27.96,3.13-40.2,8.74C369.66,19.89,332.76,0,291.21,0s-77.51,19.4-100.81,49.51c-7.12-1.65-14.53-2.52-22.15-2.52-54.07,0-97.91,43.84-97.91,97.91,0,13.44,2.71,26.26,7.62,37.92-33.21,33.19-54.74,86.48-54.74,146.56,0,.15,0,.29,0,.44Z"/>
  <path class="cls-2" d="m195.98,331.33h34.44c8.64-5.63,14.36-15.38,14.36-26.47,0-17.44-14.14-31.58-31.58-31.58s-31.58,14.14-31.58,31.58c0,11.09,5.72,20.83,14.36,26.47Z"/>
  <polygon class="cls-12" points="458.42 181.66 454.67 181.66 452.42 192.74 441.09 200.52 426 143.66 415 138.66 334.42 123.55 325.64 125.16 291.85 170.47 285.9 160.99 285.9 147.82 260.83 149.66 258.26 163.08 273 167.15 275.34 166.27 282.57 176.91 271.33 183.15 265.5 189.82 260.94 205 254.39 238.99 448.14 278.07 457.19 229.9 447.7 209.26 460.53 201.37 469.67 205 477.75 205 479.2 191.81 458.42 181.66"/>
  <path class="cls-2" d="m304.69,172.67l122.31,23.13-7.49-33.16-3.22-8.15-7.87-4.23-72.87-14.02c-3.48-.67-7.03.81-9,3.76l-21.85,32.67Z"/>
  <polygon class="cls-2" points="279.17 217.35 282.67 199.74 288.17 195.8 308.42 205 316.58 210.99 314.92 222.69 310.09 223.41 279.17 217.35"/>
  <polygon class="cls-2" points="436.67 247.7 439 229.9 436.67 225.59 428.81 225.59 406.17 226.74 402.52 231.74 403.67 239.99 420.76 244.27 436.67 247.7"/>
  <polygon class="cls-2" points="381.87 263.35 383.08 250.49 379.92 241.82 365.85 237.95 341.67 233.06 333.17 233.99 328.67 238.99 326.64 241.82 324.43 252.92 381.87 263.35"/>
  <path class="cls-2" d="m286.6,270.12s2.54,8.63-4.95,15c-7.49,6.37-13.29,11.58-23.39,18.72-10.1,7.15-14.24,12.4-18.92,28.15l34.57-.75s2.25-9.8,14.5-17.77c12.25-7.98,21.85-17.71,21.67-26.47-.17-8.76-3.4-28.72-17.04-30.37l-1.84,8.14-4.61,5.35Z"/>
  <path class="cls-2" d="m419.88,296.98s-12.77,3.33-22.37,13.92c-9.6,10.59-10.62,20.08-10.62,20.08h33.86s3.29-9.4,10.85-14.57c7.56-5.17,11.24-12.91,12.4-17.29l-6.84,1.95-17.28-4.09Z"/>
  <path class="cls-2" d="m304.61,91.11h-6.9c.09-.66.15-1.33.15-2.01,0-8.36-6.78-15.15-15.14-15.15-1.32,0-2.59.19-3.81.5-3.49-7.22-10.86-12.21-19.41-12.21-11.91,0-21.57,9.66-21.57,21.57,0,2.56.47,5.01,1.29,7.29h-11.34v17.76h76.74c4.91,0,8.88-3.98,8.88-8.88s-3.98-8.88-8.88-8.88Z"/>
  <polygon class="cls-1" points="482.33 280.33 546.33 171.99 551 177.66 549.74 185.36 492.4 282.33 482.33 280.33"/>
  <polygon class="cls-10" points="544.9 193.54 609.29 301.08 614.11 293.3 611.11 284.77 551 183.87 544.9 193.54"/>
  <polygon class="cls-13" points="591.19 290.44 462.74 290.44 466.57 298.98 478.99 302.22 597.09 299.76 591.19 290.44"/>
  <polygon class="cls-2" points="471.39 279.52 483.33 279.52 547.33 171.99 539.04 169.37 533.42 174.87 471.39 279.52"/>
  <polygon class="cls-2" points="540.09 203.36 545.9 193.54 610.29 301.08 605.29 302.6 598.09 299.76 540.09 203.36"/>
  <polygon class="cls-2" points="586.69 280.82 470.66 282.33 463.74 287.48 463.74 290.44 592.19 290.44 586.69 280.82"/>
  <path class="cls-7" d="m217.49,270.12l2.47-11.14-.8-18.99-3.75-16.48-12,.48-18.46,24.21-12.04-3.21-6,11-7.92-4,3.33-8.12-18.41-4.63-13.49-13.09-19.26-12.91-21.5-8.24-10.25,9.24,4.6,15.66s14.15-1.16,21.15,4.84,16.89,11.87,19.2,19.93c2.3,8.07,3.55,21.32,3.55,21.32l49.25,17.25,5.25-12.5,13.3-9.8,12.12-2.4,9.65,1.58Z"/>
  <circle class="cls-2" cx="90.85" cy="278.4" r="31.58" transform="translate(-43.42 18.15) rotate(-9.22)"/>
  <circle class="cls-5" cx="90.85" cy="278.4" r="11.95"/>
  <circle class="cls-5" cx="213.2" cy="304.86" r="11.95"/>
  <path class="cls-2" d="m208.04,223.77s7.99,19.94,3.83,44.77l6.51,1.58,3.71-17.46-3.93-21.17-3.27-8.8-6.86,1.08Z"/>
  <path class="cls-2" d="m235.25,215.33l-15.29-27-3.8-29.33s-1.94-10.17-13.14-9.33l-27.7,14.33-9.33,6.49-4.87,11.01,4.2,19.32,7,15.27-13.34,35.92,7.92,4,19.58-35.83-2-34.67,23.2-8,4.96,13.33,19.67,26.17,2.92-1.67Z"/>
  <polygon class="cls-2" points="185.19 197.38 203.5 203.49 214.9 222.69 203.03 222.69 184.96 248.21 181.61 247.31 195.72 220.99 185.19 197.38"/>
  <polygon class="cls-3" points="242.63 158.38 237.22 161.8 230.61 163.08 211.87 145.62 216.17 133.99 225.17 128.39 236 128.16 237.92 130.83 233.44 148.49 242.63 158.38"/>
  <path class="cls-2" d="m242.63,158.38l3.5,3.42s3.1-5.15,1.9-13.98c-1.2-8.83-4.03-11.74-4.03-11.74l-6.08-5.25-4.48,17.67,9.19,9.89Z"/>
  <rect class="cls-8" x="475.5" y="308.56" width="136.5" height="13.09"/>
  <path class="cls-2" d="m632.23,140.7c-6.13,0-11.72,2.32-15.94,6.12,2.23-3.62,3.52-7.89,3.52-12.45,0-13.12-10.64-23.76-23.76-23.76s-23.76,10.64-23.76,23.76c0,5.99,2.22,11.45,5.88,15.63-5.21,4.82-8.48,11.71-8.48,19.36,0,12.34,8.48,22.7,19.93,25.57l8.46,41.61,7.2-15.89,14.52-4.58,10.4-27.84c.66.06,1.34.09,2.01.09,13.15,0,23.81-10.66,23.81-23.81s-10.66-23.81-23.81-23.81Z"/>
  <circle class="cls-5" cx="586.69" cy="123.55" r="16.99"/>
  <circle class="cls-5" cx="636.4" cy="175.82" r="25.38"/>
  <circle class="cls-2" cx="639.12" cy="163.08" r="14.21" transform="translate(71.88 499.69) rotate(-45)"/>
  <circle class="cls-2" cx="623.39" cy="251.53" r="25.38"/>
  <circle class="cls-2" cx="645.28" cy="267.02" r="20.92" transform="translate(-44.09 155.4) rotate(-13.28)"/>
  <polygon class="cls-2" points="581.07 75.5 582.42 75.5 602.67 75.5 608.25 81.21 607.26 87.5 603.7 90.08 524.61 90.08 520.7 85.56 522.67 77.74 532.56 77.74 536.16 66.69 540.09 62.24 547.33 62.24 555.67 53.99 565.92 51.35 580.51 56.46 583.92 68.99 581.07 75.5"/>
  <circle class="cls-2" cx="542.4" cy="131.5" r="9.6"/>
  <polygon class="cls-2" points="507.72 218.23 507.72 65.16 502.17 53.59 475.67 53.59 427 54.16 420.76 62.24 499.92 62.24 499.92 229.9 507.72 218.23"/>
  <polygon class="cls-14" points="420.76 62.24 467.57 62.24 466.83 66.69 460.67 74.66 444.16 75.5 428.33 74.83 421.6 70.72 420.76 62.24"/>
  <polygon class="cls-2" points="214.32 136.11 214.32 20.24 217.67 11.99 224.42 10.1 293.92 10.1 301.25 18.62 222.93 18.62 222.1 129.49 214.32 136.11"/>
  <polygon class="cls-9" points="255.27 18.49 255.67 23.99 260.33 31.83 280.17 32.89 294.33 31.66 300.17 26.66 300.42 18.49 255.27 18.49"/>
  <path class="cls-2" d="m198.12,45.46l-28.74-2.47-16.51,23.66,12.23,26.13,28.74,2.47,16.51-23.66-12.23-26.13Zm-16.51,34.87c-6.19,0-11.21-5.02-11.21-11.21s5.02-11.21,11.21-11.21,11.21,5.02,11.21,11.21-5.02,11.21-11.21,11.21Z"/>
  <path class="cls-6" d="m171.92,83.05l-31.37-2.69-18.02,25.82,13.35,28.51,31.37,2.69,18.02-25.82-13.35-28.51Zm-18.02,38.05c-6.76,0-12.23-5.48-12.23-12.23s5.48-12.23,12.23-12.23,12.23,5.48,12.23,12.23-5.48,12.23-12.23,12.23Z"/>
  <circle class="cls-2" cx="454.5" cy="121.66" r="23.25" transform="translate(168.17 495) rotate(-67.5)"/>
  <circle class="cls-2" cx="330.03" cy="32.89" r="11.79"/>
  <circle class="cls-2" cx="631.4" cy="93.52" r="7.96"/>
  <circle class="cls-2" cx="114.59" cy="170.49" r="26.18" transform="translate(-86.99 130.96) rotate(-45)"/>
  <polygon class="cls-4" points="517.92 267.37 539.09 233.06 560.16 267.02 517.92 267.37"/>
  <circle class="cls-5" cx="695.85" cy="263.66" r="16.66" transform="translate(-41.96 166.93) rotate(-13.28)"/>
  <circle class="cls-5" cx="36.9" cy="181.21" r="22.37"/>
  <circle class="cls-5" cx="26.9" cy="247.59" r="15.77"/>
  <circle class="cls-5" cx="664.3" cy="144.78" r="11.6" transform="translate(-14.61 108.28) rotate(-9.22)"/>
  <circle class="cls-5" cx="511.54" cy="40.49" r="12.94"/>
  <g>
    <g>
      <rect class="cls-11" x="363.85" y="122" width="4" height="124.47" transform="translate(116.83 509.47) rotate(-79.29)"/>
      <path class="cls-11" d="m283.99,272.12c-.6,0-1.21-.06-1.82-.17l-24.58-4.76c-2.51-.49-4.67-1.92-6.1-4.03-1.43-2.12-1.95-4.66-1.46-7.17l1.65-8.5,3.93.76-1.65,8.5c-.28,1.46.02,2.94.85,4.17.83,1.23,2.09,2.06,3.55,2.34l24.58,4.76c3.02.59,5.93-1.39,6.51-4.4l1.65-8.5,3.93.76-1.65,8.51c-.88,4.56-4.9,7.74-9.38,7.74Z"/>
      <path class="cls-11" d="m309.96,224.69c-.49,0-.99-.05-1.48-.14l-32.08-6.04.74-3.93,32.09,6.05c2.06.4,4.06-.95,4.45-3l.71-3.68c.33-1.73-.55-3.44-2.15-4.17l-22.03-10.04c-1.06-.48-2.27-.46-3.31.08-1.04.54-1.76,1.5-1.98,2.65l-.73,3.75-3.93-.76.73-3.75c.46-2.36,1.94-4.34,4.08-5.44,2.14-1.1,4.62-1.16,6.8-.16l22.03,10.04c3.29,1.5,5.1,5.02,4.42,8.57l-.71,3.68c-.72,3.72-3.99,6.31-7.65,6.31Z"/>
      <path class="cls-11" d="m451.46,278.88l-198.42-38.45,8.25-42.59c1.4-7.24,5.54-13.5,11.66-17.63l9.01-6.09,2.24,3.31-9.01,6.09c-5.23,3.53-8.77,8.89-9.97,15.08l-7.49,38.66,190.57,36.93,7.49-38.66c1.2-6.19-.08-12.48-3.61-17.71l-6.09-9.01,3.31-2.24,6.09,9.01c4.13,6.11,5.63,13.47,4.23,20.71l-8.25,42.59Z"/>
      <path class="cls-11" d="m474.45,207.03c-.32,0-.64-.03-.96-.09l-13.91-2.69.76-3.93,13.91,2.69c.54.1,1.09-.25,1.19-.81l1.74-8.96c.09-.47-.15-.93-.59-1.13l-19.03-8.38c-.39-.17-.72-.06-.88.03-.16.09-.45.29-.53.71l-2.15,10.2-12.59,8.5-12.76-50.54c-1.49-5.89-6.3-10.45-12.27-11.6l-78.47-15.21c-5.96-1.17-12.13,1.27-15.71,6.18l-30.71,42.12-8.5-12.59,1.81-10.23c.09-.45-.1-.75-.22-.89-.12-.14-.4-.38-.81-.36l-20.78.66c-.48.02-.88.35-.97.83l-1.74,8.96c-.07.36.07.63.16.76.09.13.29.36.65.43l13.91,2.7-.76,3.93-13.91-2.7c-1.32-.25-2.45-1.01-3.2-2.12s-1.02-2.45-.77-3.76l1.74-8.96c.45-2.32,2.41-3.99,4.77-4.06l20.78-.66c1.55-.05,2.98.59,3.98,1.76,1,1.17,1.4,2.7,1.11,4.21l-1.53,8.61,4.41,6.53,27.35-37.52c4.49-6.16,12.22-9.2,19.71-7.75l78.47,15.2c7.48,1.45,13.52,7.16,15.39,14.55l11.36,45.02,6.53-4.41,1.81-8.58c.29-1.48,1.23-2.75,2.59-3.46,1.36-.71,2.95-.77,4.35-.15l19.03,8.38c2.16.95,3.36,3.23,2.91,5.55l-1.74,8.96c-.46,2.4-2.57,4.06-4.93,4.06Z"/>
      <path class="cls-11" d="m439.92,302.33c-.6,0-1.21-.06-1.82-.17l-24.58-4.76c-2.51-.49-4.67-1.92-6.1-4.03-1.43-2.12-1.95-4.66-1.46-7.17l1.65-8.5,3.93.76-1.65,8.51c-.58,3.01,1.39,5.93,4.4,6.51l24.58,4.76c3.01.59,5.93-1.39,6.51-4.4l1.65-8.51,3.93.76-1.65,8.51c-.88,4.56-4.9,7.74-9.38,7.74Z"/>
      <path class="cls-11" d="m438.07,249.66l-31.25-6.05c-2.04-.4-3.81-1.56-4.97-3.29-1.17-1.72-1.59-3.8-1.19-5.84l.71-3.68c.69-3.55,3.69-6.14,7.3-6.3l24.19-1.09c2.39-.08,4.68.87,6.25,2.69,1.57,1.82,2.21,4.21,1.75,6.57l-.73,3.75-3.93-.76.73-3.75c.22-1.15-.09-2.31-.85-3.2-.76-.88-1.86-1.38-3.04-1.31l-24.18,1.09c-1.76.08-3.22,1.34-3.55,3.07l-.71,3.68c-.4,2.05.95,4.04,3,4.44l31.25,6.05-.76,3.93Z"/>
      <rect class="cls-11" x="351.82" y="172.41" width="25.93" height="4" transform="translate(-35.13 234.03) rotate(-34.03)"/>
      <rect class="cls-11" x="374.15" y="160.64" width="16.12" height="4" transform="translate(-25.56 241.76) rotate(-34.03)"/>
      <rect class="cls-11" x="372.24" y="179.21" width="19.27" height="4" transform="translate(-36.01 244.75) rotate(-34.03)"/>
      <path class="cls-11" d="m419.66,171.65l-2.94-11.99c-.9-3.67-3.88-6.51-7.59-7.23l-74.09-14.36.76-3.93,74.09,14.36c5.24,1.02,9.44,5.02,10.71,10.2l2.94,11.99-3.88.95Z"/>
      <path class="cls-11" d="m384.75,255.06l-3.93-.76.05-.26c1.15-5.92-2.74-11.67-8.66-12.82l-30.75-5.96c-2.86-.56-5.78.04-8.2,1.67-2.42,1.63-4.06,4.12-4.62,6.98l-.05.26-3.93-.76.05-.26c.76-3.92,3-7.3,6.3-9.54,3.31-2.23,7.28-3.04,11.2-2.29l30.75,5.96c3.92.76,7.3,3,9.54,6.3,2.23,3.31,3.04,7.28,2.29,11.2l-.05.26Z"/>
    </g>
    <path class="cls-11" d="m276.35,327.12l-3.27-2.31c1.18-1.67,2.53-3.3,4.01-4.85l2.89,2.77c-1.35,1.41-2.57,2.88-3.63,4.39Zm7.86-8.28l-2.53-3.1c1.55-1.26,3.23-2.49,5.01-3.66l2.2,3.34c-1.66,1.09-3.24,2.24-4.68,3.42Zm9.71-6.89l-2.39-3.21c1.61-1.2,3.12-2.44,4.5-3.68l2.67,2.97c-1.47,1.32-3.08,2.64-4.78,3.91Zm9.18-8.32l-3-2.64c1.3-1.48,2.47-3,3.46-4.53l3.36,2.18c-1.09,1.69-2.38,3.37-3.81,5Zm6.78-10.62l-3.7-1.52c.72-1.75,1.24-3.54,1.55-5.33l3.94.69c-.36,2.08-.97,4.15-1.79,6.16Zm-1.83-12.37c-.1-1.82-.42-3.66-.93-5.47l3.85-1.09c.59,2.09.95,4.23,1.07,6.33l-3.99.23Zm-2.98-10.68c-1.48-2.89-2.96-4.61-2.98-4.63l3.01-2.64c.07.08,1.81,2.08,3.54,5.45l-3.56,1.82Z"/>
    <path class="cls-11" d="m241.28,330.32l-3.88-.98c.81-3.19,1.98-6.29,3.48-9.2l3.55,1.83c-1.36,2.64-2.42,5.45-3.16,8.34Z"/>
    <path class="cls-11" d="m244.44,321.97l-3.55-1.83c3.92-7.6,10.19-14.17,18.63-19.53,12.84-8.16,21.37-16.06,25.33-23.48l3.53,1.88c-4.29,8.03-13.28,16.44-26.71,24.97-7.84,4.98-13.63,11.03-17.22,17.98Z"/>
    <path class="cls-11" d="m424.18,326.72l-3.23-2.35c1.2-1.65,2.57-3.26,4.07-4.79l2.86,2.8c-1.37,1.39-2.61,2.86-3.69,4.34Zm7.97-8.19l-2.5-3.12c1.55-1.24,3.24-2.45,5.04-3.61l2.17,3.36c-1.68,1.09-3.26,2.22-4.71,3.38Z"/>
    <path class="cls-11" d="m388.83,330.32l-3.88-.98c2.93-11.61,10.37-21.28,22.11-28.73l2.14,3.38c-10.84,6.89-17.7,15.75-20.37,26.33Z"/>
  </g>
  <g>
    <path class="cls-11" d="m598.83,303.08h-125.17c-6.57,0-11.92-5.35-11.92-11.92v-.2c0-6.57,5.35-11.92,11.92-11.92h114v4h-114c-4.37,0-7.92,3.55-7.92,7.92v.2c0,4.37,3.55,7.92,7.92,7.92h125.17v4Z"/>
    <path class="cls-11" d="m495.53,282.06l-3.44-2.04,57-95.81c2.23-3.74,1.01-8.6-2.72-10.84l-.17-.11c-1.81-1.09-3.94-1.41-6-.89-2.06.52-3.79,1.8-4.87,3.62l-62.94,105.77-3.44-2.04,62.94-105.77c1.64-2.74,4.24-4.68,7.33-5.46,3.09-.78,6.3-.3,9.04,1.34l.17.11c5.61,3.37,7.45,10.69,4.1,16.32l-57,95.81Z"/>
    <path class="cls-11" d="m605.04,304.6c-.97,0-1.96-.12-2.92-.36-3.1-.78-5.7-2.71-7.33-5.46l-55.98-95.05,3.45-2.03,55.98,95.04c1.08,1.81,2.81,3.1,4.87,3.62,2.06.52,4.19.2,6.01-.89l.17-.1c3.74-2.24,4.96-7.11,2.73-10.85l-61.5-104.39,3.45-2.03,61.49,104.38c3.35,5.62,1.5,12.94-4.11,16.31l-.16.1c-1.88,1.13-3.99,1.71-6.12,1.71Z"/>
    <polygon class="cls-11" points="511.54 318.41 470.01 318.41 470.01 307.06 474.01 307.06 474.01 314.41 511.54 314.41 511.54 318.41"/>
    <polygon class="cls-11" points="607.68 318.41 559.42 318.41 559.42 314.41 603.68 314.41 603.68 308.56 607.68 308.56 607.68 318.41"/>
    <path class="cls-11" d="m479.99,291.06c0,1.24-1,2.24-2.24,2.24s-2.24-1-2.24-2.24,1-2.24,2.24-2.24,2.24,1,2.24,2.24Z"/>
    <circle class="cls-11" cx="603.44" cy="289.73" r="2.24"/>
    <path class="cls-11" d="m542.76,183.11c0,1.24-1,2.24-2.24,2.24s-2.24-1-2.24-2.24,1-2.24,2.24-2.24,2.24,1,2.24,2.24Z"/>
    <rect class="cls-11" x="511.54" y="314.41" width="47.88" height="4"/>
    <polygon class="cls-11" points="479.66 332.98 463.74 332.98 463.74 328.98 478 328.98 491.98 315 494.81 317.83 479.66 332.98"/>
    <polygon class="cls-11" points="615.11 332.98 599.19 332.98 584.04 317.83 586.87 315 600.85 328.98 615.11 328.98 615.11 332.98"/>
    <path class="cls-11" d="m565.12,269.78h-50.09l25.29-41.86,24.79,41.86Zm-43-4h35.98l-17.81-30.07-18.17,30.07Z"/>
  </g>
  <g>
    <path class="cls-11" d="m509.87,218.23h-4V65.17c0-5.6-4.56-10.16-10.16-10.16h-44.58v-4h44.58c7.81,0,14.16,6.35,14.16,14.16v153.06Z"/>
    <path class="cls-11" d="m455.7,77.5h-23.8c-7.24,0-13.13-5.89-13.13-13.13v-.22c0-7.24,5.89-13.13,13.13-13.13h23.8v4h-23.8c-5.04,0-9.13,4.1-9.13,9.13v.22c0,5.04,4.1,9.13,9.13,9.13h23.8c5.04,0,9.13-4.1,9.13-9.13v-.22h4v.22c0,7.24-5.89,13.13-13.13,13.13Z"/>
    <polygon class="cls-11" points="496.29 241.04 492.29 241.04 492.29 69.8 479.5 69.8 479.5 65.8 496.29 65.8 496.29 241.04"/>
  </g>
  <g>
    <path class="cls-11" d="m216.32,139.45h-4V22.23c0-7.79,6.34-14.13,14.13-14.13h44.49v4h-44.49c-5.59,0-10.13,4.55-10.13,10.13v117.22Z"/>
    <path class="cls-11" d="m290.14,34.55h-23.76c-7.23,0-13.11-5.88-13.11-13.11v-.22h4v.22c0,5.02,4.09,9.11,9.11,9.11h23.76c5.02,0,9.11-4.09,9.11-9.11v-.22c0-5.02-4.09-9.11-9.11-9.11h-23.76v-4h23.76c7.23,0,13.11,5.88,13.11,13.11v.22c0,7.23-5.88,13.11-13.11,13.11Z"/>
    <polygon class="cls-11" points="229.87 128.39 225.87 128.39 225.87 22.86 242.63 22.86 242.63 26.86 229.87 26.86 229.87 128.39"/>
  </g>
  <rect class="cls-11" x="624.87" y="328.98" width="76.8" height="4"/>
  <rect class="cls-11" y="328.98" width="284.17" height="4"/>
  <g>
    <g>
      <path class="cls-11" d="m85.24,306.85c-2.29,0-4.61-.24-6.94-.73-8.68-1.85-16.11-6.97-20.94-14.41-4.83-7.44-6.46-16.32-4.61-25,3.82-17.91,21.5-29.37,39.41-25.55,17.91,3.82,29.38,21.5,25.55,39.41-3.33,15.58-17.14,26.29-32.48,26.29Zm-.01-62.44c-13.49,0-25.64,9.41-28.57,23.12-1.63,7.63-.19,15.44,4.06,21.99,4.25,6.55,10.79,11.05,18.42,12.68,15.76,3.36,31.31-6.72,34.67-22.48,3.36-15.75-6.72-31.31-22.48-34.67-2.05-.44-4.09-.65-6.1-.65Z"/>
      <path class="cls-11" d="m85.38,287.12c-.97,0-1.96-.1-2.95-.31-3.69-.79-6.85-2.96-8.9-6.13-2.05-3.17-2.75-6.94-1.96-10.63,1.62-7.61,9.14-12.49,16.76-10.86,7.62,1.62,12.49,9.14,10.86,16.76-1.41,6.63-7.29,11.18-13.81,11.18Zm0-24.25c-4.67,0-8.88,3.26-9.9,8.01-.56,2.64-.07,5.35,1.41,7.62,1.47,2.27,3.74,3.83,6.38,4.39,2.64.56,5.35.06,7.62-1.41,2.27-1.47,3.83-3.74,4.39-6.38,1.16-5.46-2.33-10.85-7.79-12.01-.71-.15-1.42-.22-2.11-.22Z"/>
      <path class="cls-11" d="m207.71,332.98c-2.29,0-4.61-.24-6.94-.73-17.91-3.82-29.38-21.5-25.55-39.41,3.82-17.91,21.5-29.38,39.41-25.55,17.91,3.82,29.38,21.5,25.55,39.41-3.33,15.58-17.14,26.29-32.48,26.29Zm-.01-62.44c-13.49,0-25.64,9.41-28.57,23.12-3.36,15.75,6.72,31.31,22.48,34.67,15.76,3.36,31.31-6.72,34.67-22.48,3.36-15.75-6.72-31.31-22.48-34.67-2.05-.44-4.09-.65-6.1-.65Z"/>
      <path class="cls-11" d="m207.87,313.25c-.99,0-1.99-.1-2.97-.32-3.69-.79-6.85-2.96-8.9-6.13-2.05-3.17-2.75-6.94-1.96-10.63,1.62-7.61,9.14-12.49,16.76-10.86,3.69.79,6.85,2.96,8.9,6.13,2.05,3.16,2.75,6.94,1.96,10.63-.79,3.69-2.96,6.85-6.13,8.9-2.32,1.5-4.96,2.28-7.65,2.28Zm-.03-24.25c-4.67,0-8.88,3.26-9.9,8.01-.56,2.64-.07,5.35,1.41,7.62,1.47,2.27,3.74,3.83,6.38,4.39,2.64.56,5.35.06,7.62-1.41,2.27-1.47,3.83-3.74,4.39-6.38.56-2.64.07-5.35-1.41-7.62-1.47-2.27-3.74-3.83-6.38-4.39-.71-.15-1.42-.22-2.11-.22Z"/>
      <polygon class="cls-11" points="231.57 219.7 210.04 190.71 203.75 167.97 207.61 166.9 213.7 188.93 233.06 215 237.18 213.65 222.99 187.53 220.11 162.52 224.08 162.06 226.88 186.3 242.98 215.95 231.57 219.7"/>
      <path class="cls-11" d="m167.96,259.24l-11.48-5.4,13.44-36.13-8.55-25.36c-1.8-5.35-1.69-11.2.31-16.48l.06-.16c2.06-5.45,6.01-9.99,11.12-12.79l29.22-16c7.19-3.48,15.79-.97,18.12,3.42l2.13,4.03c.92,1.74,1.49,5.54,1.75,7.65l-3.97.49c-.36-2.95-.89-5.47-1.31-6.27l-2.13-4.03c-1.17-2.21-7.22-4.39-12.8-1.71l-29.08,15.93c-4.27,2.34-7.58,6.14-9.31,10.7l-.06.16c-1.67,4.41-1.76,9.31-.25,13.78l9,26.71-12.65,34.01,4.75,2.23,19.04-34.77-2.53-34.83,15.75-6.43,1.51,3.7-13.07,5.33,2.41,33.12-21.42,39.11Z"/>
      <path class="cls-11" d="m167.59,291.79l-41.34-14.42.11-1.53c1.44-20.28-12.5-38.78-32.42-43.03-2.77-.59-5.6-.9-8.41-.91l.02-4c3.08.02,6.19.35,9.22,1,21.36,4.56,36.45,24.04,35.66,45.69l38.47,13.42-1.32,3.78Z"/>
      <path class="cls-11" d="m154.77,243.78l-11.85-2.53-.89-1.03c-11.2-12.99-25.6-23.04-41.67-29.06l-10.37-3.88-8.89,7.24,6.05,18.57-3.8,1.24-6.91-21.18,12.8-10.42,12.52,4.69c16.69,6.25,31.66,16.69,43.29,30.19,0,0,10.54,2.26,10.54,2.26l-.83,3.91Z"/>
      <path class="cls-11" d="m220.34,270.54l-3.91-.83.27-1.25c2.8-13.13,2.13-26.84-1.93-39.64l-1.03-3.25-9.1.32-18.09,23.5-3.17-2.44,19.24-24.99,14.01-.5,1.95,6.15c4.28,13.46,4.98,27.87,2.03,41.68l-.27,1.25Z"/>
      <polygon class="cls-11" points="210.2 217.17 202.31 205.2 193.78 203.38 194.61 199.47 204.75 201.63 213.54 214.98 210.2 217.17"/>
      <rect class="cls-11" x="153.18" y="290.18" width="4" height="18.85" transform="translate(-175.73 365.47) rotate(-73.88)"/>
      <g>
        <path class="cls-11" d="m230.65,165.08h-.83l-18.63-18.63v-.83c0-10.73,8.73-19.46,19.46-19.46,3.63,0,7.18,1.01,10.25,2.92,6.53,4.05,9.73,12.51,9.03,23.83l-3.99-.25c.61-9.77-1.93-16.94-7.15-20.18-2.44-1.51-5.25-2.31-8.14-2.31-8.25,0-15.01,6.5-15.44,14.65l16.24,16.24c2.94-.15,5.74-1.12,8.15-2.84l2.32,3.26c-3.31,2.36-7.2,3.6-11.28,3.6Z"/>
        <polygon class="cls-11" points="244.73 163.23 231.18 149.97 234.17 140.12 238 141.28 235.71 148.81 247.53 160.37 244.73 163.23"/>
      </g>
    </g>
    <path class="cls-11" d="m147.27,172.13l-4.93-3.42,2.28-3.29,4.93,3.42-2.28,3.29Zm-9.86-6.84l-4.93-3.42,2.28-3.29,4.93,3.42-2.28,3.29Zm-9.86-6.84l-4.93-3.42,2.28-3.29,4.93,3.42-2.28,3.29Zm-9.86-6.84l-4.93-3.42,2.28-3.29,4.93,3.42-2.28,3.29Zm-9.86-6.84l-4.93-3.42,2.28-3.29,4.93,3.42-2.28,3.29Zm-9.86-6.84l-4.93-3.42,2.28-3.29,4.93,3.42-2.28,3.29Zm-9.86-6.84l-4.93-3.42,2.28-3.29,4.93,3.42-2.28,3.29Z"/>
    <rect class="cls-11" x="93.6" y="167.71" width="4" height="10.07" transform="translate(-99 206.09) rotate(-70.76)"/>
    <rect class="cls-11" x="126.64" y="169.62" width="4" height="29.97" transform="translate(-89.22 240.81) rotate(-69.6)"/>
  </g>
  <g>
    <path class="cls-11" d="m304.88,110.87l-64.14-.08v-4s64.14.08,64.14.08c3.64,0,6.61-2.97,6.61-6.61s-2.97-6.61-6.61-6.61h-27.77v-4h27.77c5.85,0,10.61,4.76,10.61,10.61s-4.76,10.61-10.61,10.61Z"/>
    <path class="cls-11" d="m237.83,92.43c-1.27-2.98-1.91-6.14-1.91-9.39,0-13.24,10.77-24,24-24,9.31,0,17.62,5.28,21.61,13.58.77-.12,1.55-.18,2.31-.18,8.49,0,15.39,6.91,15.39,15.39h-4c0-6.28-5.11-11.39-11.39-11.39-.97,0-1.97.14-2.97.41l-1.72.46-.66-1.65c-3.05-7.66-10.34-12.61-18.57-12.61-11.03,0-20,8.97-20,20,0,2.71.54,5.35,1.59,7.83l-3.68,1.57Z"/>
  </g>
  <g>
    <path class="cls-11" d="m601.56,92.41h-73.83c-4.98,0-9.03-4.05-9.03-9.03s4.05-9.03,9.03-9.03h22.68v4h-22.68c-2.77,0-5.03,2.26-5.03,5.03s2.26,5.03,5.03,5.03h73.83c2.77,0,5.03-2.26,5.03-5.03s-2.26-5.03-5.03-5.03v-4c4.98,0,9.03,4.05,9.03,9.03s-4.05,9.03-9.03,9.03Z"/>
    <path class="cls-11" d="m582.83,77.14l-3.68-1.57c.84-1.98,1.27-4.08,1.27-6.25,0-8.8-7.16-15.97-15.97-15.97-6.57,0-12.39,3.95-14.83,10.06l-.66,1.65-1.72-.46c-.78-.21-1.57-.32-2.32-.32-4.93,0-8.94,4.01-8.94,8.94h-4c0-7.13,5.8-12.94,12.94-12.94.55,0,1.11.04,1.67.11,3.36-6.77,10.2-11.05,17.86-11.05,11.01,0,19.97,8.96,19.97,19.97,0,2.71-.54,5.33-1.59,7.81Z"/>
  </g>
  <g>
    <path class="cls-11" d="m163.59,135.99l-33.67-2.89-14.33-30.6,19.34-27.71,33.67,2.89,14.33,30.6-19.34,27.71Zm-31.03-6.68l29.07,2.5,16.7-23.92-12.37-26.42-29.07-2.5-16.7,23.92,12.37,26.42Z"/>
    <path class="cls-11" d="m149.28,119.25c-5.22,0-10.22-2.96-12.58-7.98-3.24-6.93-.25-15.2,6.68-18.44,6.93-3.24,15.2-.25,18.44,6.68,3.24,6.92.25,15.2-6.68,18.44-1.9.89-3.89,1.31-5.86,1.31Zm-.04-23.73c-1.4,0-2.82.3-4.17.93-4.93,2.31-7.06,8.19-4.75,13.12,2.31,4.93,8.19,7.06,13.12,4.75,4.93-2.31,7.06-8.19,4.75-13.12-1.67-3.58-5.24-5.68-8.95-5.68Z"/>
  </g>
  <g>
    <polygon class="cls-11" points="185.06 92.49 182.16 89.73 200.73 70.24 193.46 45.52 168.42 39.46 150.65 58.11 153.45 67.65 149.62 68.77 146.16 57.02 167.12 35.02 196.65 42.18 205.22 71.32 185.06 92.49"/>
    <path class="cls-11" d="m175.7,76.76c-5.44,0-10.47-3.56-12.08-9.03-.95-3.22-.58-6.62,1.03-9.58,1.61-2.95,4.27-5.1,7.5-6.04,3.22-.95,6.62-.58,9.57,1.03,2.95,1.61,5.1,4.27,6.04,7.5,1.96,6.66-1.87,13.66-8.52,15.62-1.18.35-2.37.51-3.54.51Zm0-21.17c-.81,0-1.63.12-2.43.35-2.2.65-4.02,2.11-5.11,4.12-1.1,2.01-1.35,4.33-.7,6.53.65,2.2,2.11,4.01,4.12,5.11,2.01,1.1,4.33,1.35,6.53.7,4.54-1.33,7.15-6.11,5.81-10.65-.65-2.2-2.11-4.01-4.12-5.11-1.28-.7-2.68-1.05-4.1-1.05Z"/>
  </g>
  <g>
    <path class="cls-11" d="m386.95,101.23l-18.99-15.75,9.72-11.71,18.99,15.75-9.72,11.71Zm-13.36-16.27l12.83,10.64,4.61-5.56-12.83-10.64-4.61,5.56Z"/>
    <path class="cls-11" d="m373.4,73.42c-8.71-9.97-18.69-15.12-18.79-15.17l1.82-3.56c.43.22,10.76,5.56,19.98,16.1l-3.01,2.63Z"/>
    <path class="cls-11" d="m364.18,82.92c-11.67-7.15-25.42-11.72-34.9-14.29l1.05-3.86c9.73,2.64,23.87,7.35,35.94,14.74l-2.09,3.41Z"/>
    <path class="cls-11" d="m327.23,68.08c-5.11-1.32-8.45-1.94-8.48-1.94l.72-3.94c.14.03,3.5.64,8.77,2l-1,3.87Z"/>
    <path class="cls-11" d="m406.83,72.88h-13.48v-13.48h13.48v13.48Zm-9.48-4h5.48v-5.48h-5.48v5.48Z"/>
    <rect class="cls-11" x="406.42" y="87.84" width="4" height="10.15" transform="translate(53.92 316.01) rotate(-45)"/>
  </g>
  <path class="cls-11" d="m637.15,265.41l-1.97-3.48c7.52-4.25,12.19-12.26,12.19-20.88,0-13.22-10.76-23.98-23.98-23.98-9.02,0-17.2,4.99-21.33,13.02-1.75,3.41-2.64,7.1-2.64,10.96h-4c0-4.44,1.07-8.87,3.09-12.79,4.82-9.37,14.36-15.19,24.89-15.19,15.43,0,27.98,12.55,27.98,27.98,0,10.07-5.45,19.4-14.22,24.36Z"/>
  <path class="cls-11" d="m636.41,286.77v-4c8.69,0,15.75-7.07,15.75-15.75h4c0,10.89-8.86,19.75-19.75,19.75Z"/>
  <g>
    <path class="cls-11" d="m621.69,216.78l-3.75-1.4,11.36-30.29h1.39c3.97,0,7.88-1.03,11.32-2.96l1.97,3.48c-3.63,2.05-7.71,3.23-11.89,3.45l-10.4,27.73Z"/>
    <path class="cls-11" d="m643.97,185.61l-1.97-3.48c7.24-4.09,11.74-11.79,11.74-20.1h4c0,9.75-5.28,18.79-13.78,23.58Z"/>
    <path class="cls-11" d="m657.75,162.02h-4c0-12.49-9.79-22.6-22.28-23.02l-1.83-.06-.1-1.83c-.16-2.95-.79-5.84-1.87-8.58l3.72-1.48c1.03,2.59,1.7,5.29,2.01,8.06,13.8,1.35,24.37,12.84,24.37,26.9Z"/>
    <path class="cls-11" d="m627.66,128.54c-4.14-10.41-14.04-17.14-25.23-17.14-7.52,0-14.77,3.16-19.89,8.66l-2.93-2.73c5.88-6.31,14.2-9.93,22.82-9.93,12.84,0,24.2,7.72,28.95,19.66l-3.72,1.48Z"/>
    <path class="cls-11" d="m583.07,185.17c-12.76,0-23.14-10.38-23.14-23.14,0-8.32,4.39-15.86,11.54-20-.15-1.22-.22-2.36-.22-3.45,0-7.91,2.97-15.46,8.36-21.25l2.93,2.73c-4.7,5.04-7.29,11.62-7.29,18.52,0,1.29.12,2.67.37,4.24l.23,1.45-1.31.65c-6.54,3.27-10.61,9.83-10.61,17.11,0,10.55,8.59,19.14,19.14,19.14,8.55,0,16.12-5.75,18.42-14l3.85,1.07c-2.78,9.96-11.94,16.92-22.27,16.92Z"/>
    <rect class="cls-11" x="587.44" y="182.06" width="4" height="30.25" transform="translate(-26.02 110.37) rotate(-10.47)"/>
    <rect class="cls-11" x="601.19" y="188.51" width="4" height="22.05" transform="translate(-8.67 28.43) rotate(-2.68)"/>
  </g>
  <g>
    <rect class="cls-11" x="456.21" y="110.58" width="4" height="7.65"/>
    <rect class="cls-11" x="463.74" y="120.91" width="7.65" height="4"/>
    <rect class="cls-11" x="456.21" y="128.86" width="4" height="7.65"/>
    <rect class="cls-11" x="445.31" y="120.91" width="7.65" height="4"/>
  </g>
  <g>
    <rect class="cls-11" x="617.67" y="238.56" width="4" height="7.65"/>
    <rect class="cls-11" x="625.2" y="248.89" width="7.65" height="4"/>
    <rect class="cls-11" x="617.67" y="256.84" width="4" height="7.65"/>
    <rect class="cls-11" x="606.77" y="248.89" width="7.65" height="4"/>
  </g>
  <g>
    <rect class="cls-11" x="333.28" y="6.95" width="4" height="7.65"/>
    <rect class="cls-11" x="340.81" y="17.28" width="7.65" height="4"/>
    <rect class="cls-11" x="333.28" y="25.23" width="4" height="7.65"/>
    <rect class="cls-11" x="322.38" y="17.28" width="7.65" height="4"/>
  </g>
  <rect class="cls-11" x="293.05" y="328.98" width="10.3" height="4"/>
  <rect class="cls-11" x="316.58" y="328.98" width="10.3" height="4"/>
  <rect class="cls-11" x="340.11" y="328.98" width="10.3" height="4"/>
  <rect class="cls-11" x="364.79" y="328.98" width="88.18" height="4"/>
  <path class="cls-11" d="m532.56,141.45c-5.49,0-9.96-4.47-9.96-9.96s4.47-9.96,9.96-9.96,9.96,4.47,9.96,9.96-4.47,9.96-9.96,9.96Zm0-15.91c-3.28,0-5.96,2.67-5.96,5.96s2.67,5.96,5.96,5.96,5.96-2.67,5.96-5.96-2.67-5.96-5.96-5.96Z"/>
</svg>