<?xml version="1.0" encoding="UTF-8"?>
<svg id="Capa_1" data-name="Capa 1" xmlns="http://www.w3.org/2000/svg" xmlns:xlink="http://www.w3.org/1999/xlink" viewBox="0 0 800.05 663.36">
  <defs>
    <style>
      .cls-1 {
        fill: url(#linear-gradient);
      }
    </style>
    <linearGradient id="linear-gradient" x1="89.87" y1="107.81" x2="652.32" y2="432.54" gradientUnits="userSpaceOnUse">
      <stop offset="0" stop-color="#3c9eee"/>
      <stop offset="1" stop-color="#f0f"/>
    </linearGradient>
  </defs>
  <g id="Layer_1" data-name="Layer 1">
    <g>
      <path class="cls-1" d="m540.23,107.08c-1.89-1.91-4.24-3.29-6.77-4.09l-152.76-47.96c-61.09-19.18-100.83,14.28-111.54,25.02-6.25,6.25-11.03,12.83-13.48,18.57l-68.05,160.06c-3.9,9.16-2.57,21.36,3.54,33.53,8.75,17.38,24.51,29.91,43.35,34.42,21.09,5.06,42.96-1.8,60.08-18.91,4.48-4.48,8.29-9.41,10.54-13.6l22.88-42.43c3.76-7.03,9.23-14.31,14.98-20.07,19.63-19.64,28.95-10.66,32.92-6.84,34.23,33.04,213.68,213.26,213.68,213.26,6.38,6.38,5.06,18.48-2.93,26.45-7.97,7.95-20.08,9.31-26.45,2.96l-50.42-50.4c-6.5-6.52-16.99-6.52-23.49,0-6.5,6.45-6.5,16.99,0,23.47l50.42,50.43c6.37,6.35,5.04,18.45-2.93,26.4-7.97,7.98-20.1,9.31-26.43,2.96l-50.43-50.4c-6.5-6.5-17.02-6.5-23.49,0-6.5,6.45-6.5,16.99,0,23.49l50.42,50.42c6.37,6.37,4.99,18.47-2.96,26.43-7.95,7.95-20.05,9.31-26.43,2.93l-50.42-50.4c-6.47-6.48-17-6.48-23.49,0-6.47,6.48-6.47,17.02,0,23.47l50.42,50.43c6.38,6.38,5.02,18.48-2.93,26.45-8,7.97-20.1,9.31-26.45,2.94l-61.38-61.43c8.77-13.17,6.38-32.29-6.62-45.34-14.57-14.55-36.99-15.9-49.96-2.89,12.97-12.99,11.69-35.37-2.91-49.96-14.6-14.57-36.97-15.91-49.94-2.94,12.97-12.97,11.66-35.34-2.96-49.91-14.57-14.6-36.94-15.93-49.94-2.96,13-12.97,11.66-35.34-2.93-49.96-13.65-13.65-33.99-15.51-47.22-5.11l-99.39-99.39c-6.48-6.5-17.02-6.5-23.51,0-6.47,6.47-6.47,17,0,23.51l99.13,99.11-29.4,29.4c-12.97,12.95-11.66,35.32,2.96,49.94,14.57,14.57,36.94,15.91,49.92,2.93-12.99,12.99-11.66,35.34,2.94,49.94,14.57,14.55,36.95,15.93,49.94,2.94-12.99,12.99-11.68,35.34,2.93,49.92,14.6,14.6,36.97,15.93,49.94,2.96-12.97,12.95-11.66,35.3,2.94,49.92,14.59,14.57,36.94,15.91,49.94,2.93l31.05-31.03,60.95,60.93c19.45,19.45,52.36,18.09,73.43-2.94,10.26-10.26,15.74-23.37,16.51-36.34,12.97-.77,26.09-6.26,36.34-16.54,10.28-10.26,15.8-23.37,16.58-36.34,12.95-.77,26.02-6.25,36.34-16.53,10.26-10.28,15.76-23.37,16.51-36.36,12.99-.75,26.09-6.23,36.37-16.54,21.04-21.04,22.33-53.99,2.93-73.41l-25.7-25.72,105.53-105.51c6.48-6.47,6.48-17,0-23.49l-152.71-152.8Z"/>
      <path class="cls-1" d="m790.33,144.22L655.85,9.74c-12.97-12.99-34.02-12.99-47.01,0l-47.01,46.98c-12.97,12.97-12.97,34.02,0,46.99l134.5,134.52c12.99,12.97,34.04,12.97,47.01,0l46.99-46.99c12.95-12.99,12.95-34.04,0-47.01Zm-70.59,68.49c-15.05,0-27.27-12.2-27.27-27.27s12.22-27.28,27.27-27.28,27.28,12.2,27.28,27.28c-.02,15.05-12.22,27.27-27.28,27.27Z"/>
    </g>
  </g>
</svg>