<?xml version="1.0" encoding="UTF-8"?>
<svg id="Capa_1" data-name="Capa 1" xmlns="http://www.w3.org/2000/svg" xmlns:xlink="http://www.w3.org/1999/xlink" viewBox="0 0 632.57 800.02">
  <defs>
    <style>
      .cls-1 {
        fill: url(#linear-gradient);
      }
    </style>
    <linearGradient id="linear-gradient" x1="-62.21" y1="228" x2="694.77" y2="665.04" gradientUnits="userSpaceOnUse">
      <stop offset="0" stop-color="#3c9eee"/>
      <stop offset="1" stop-color="#f0f"/>
    </linearGradient>
  </defs>
  <g id="Layer_1" data-name="Layer 1">
    <g>
      <path class="cls-1" d="m595.36,93.02h-148.83v74.42h111.62v558.13H74.43V167.43h111.62v-74.42H37.21C16.66,93.02,0,109.68,0,130.24v632.55c0,20.54,16.66,37.22,37.21,37.22h558.13c20.54,0,37.22-16.66,37.22-37.22V130.23c-.02-20.54-16.66-37.21-37.21-37.21Z"/>
      <path class="cls-1" d="m231.54,238.72c1.33.9,33.19,21.74,84.75,21.74s83.4-20.85,84.75-21.74c5.19-3.44,8.27-9.26,8.27-15.47V18.6c0-10.28-8.31-18.6-18.6-18.6h-148.83c-10.28,0-18.6,8.32-18.6,18.6v204.64c0,6.21,3.11,12.03,8.27,15.47Zm28.94-201.49h111.62v174.82c-10.28,4.58-29.63,11.2-55.79,11.2s-45.53-6.66-55.81-11.25l-.02-174.77h0Z"/>
      <path class="cls-1" d="m219.67,600.6c-41.12,13.43-78.13,15.83-78.13,70.25,0,11.15,56.71,21.82,150.35,23.44l11.85-76.34-5.97-9.58c-.85-1.34-.7-3.08.36-4.24l15.57-16.83c1.34-1.4,3.78-1.4,5.12,0l15.59,16.83c1.06,1.16,1.19,2.89.36,4.24l-5.97,9.58,11.85,76.32c93.65-1.6,150.36-12.27,150.36-23.42,0-54.42-37.02-56.82-78.14-70.25-25.34-8.24-56.75-12.92-50.04-56.54,16.7-15.25,22.54-46.69,22.54-46.69,0,0,22.21-11.2,24.73-32.66,1.89-16.36-6.66-23.91-6.66-23.91v-20.8c0-46.16-39.54-82.57-87.18-82.57s-87.18,36.41-87.18,82.57v20.8s-8.54,7.56-6.66,23.91c2.54,21.46,24.73,32.66,24.73,32.66,0,0,5.84,31.45,22.54,46.69,6.74,43.62-24.66,48.31-50.01,56.54Z"/>
      <circle class="cls-1" cx="316.28" cy="74.42" r="29.65"/>
    </g>
  </g>
</svg>