<?xml version="1.0" encoding="UTF-8"?>
<svg id="Layer_1" data-name="Layer 1" xmlns="http://www.w3.org/2000/svg" xmlns:xlink="http://www.w3.org/1999/xlink" viewBox="0 0 86 72">
  <defs>
    <style>
      .cls-1 {
        fill: url(#linear-gradient-2);
      }

      .cls-2 {
        fill: #fff;
      }

      .cls-3 {
        fill: #472b29;
      }

      .cls-4 {
        fill: #fdfcee;
      }

      .cls-5 {
        fill: #fdfcef;
      }

      .cls-6 {
        fill: url(#linear-gradient);
      }
    </style>
    <linearGradient id="linear-gradient" x1="4" y1="38" x2="86" y2="38" gradientTransform="translate(0 74) scale(1 -1)" gradientUnits="userSpaceOnUse">
      <stop offset="0" stop-color="#3b9fee"/>
      <stop offset=".08" stop-color="#4299ee"/>
      <stop offset=".2" stop-color="#5688f0"/>
      <stop offset=".34" stop-color="#776df3"/>
      <stop offset=".5" stop-color="#a548f7"/>
      <stop offset=".68" stop-color="#df19fc"/>
      <stop offset=".76" stop-color="#f0f"/>
      <stop offset=".8" stop-color="#f0f"/>
      <stop offset="1" stop-color="#f0f"/>
    </linearGradient>
    <linearGradient id="linear-gradient-2" x1="24.7" y1="36" x2="67.3" y2="36" gradientTransform="matrix(1,0,0,1,0,0)" xlink:href="#linear-gradient"/>
  </defs>
  <path class="cls-6" d="m82.2,42.7c1.1-2.2,1.8-4.6,1.8-7.2,0-6.6-4.2-12.3-10-14.5h0c0-11.6-9.4-21-21-21-9.8,0-18,6.7-20.3,15.8-1.5-.5-3-.8-4.7-.8-7.7,0-14,5.8-14.9,13.3-5.2,1.1-9.1,5.7-9.1,11.2,0,6.4,5.1,11.5,11.5,11.5h.5v.5c0,11.3,9.2,20.5,20.5,20.5,6.4,0,12.2-3,15.9-7.6,2.2,2.2,5.2,3.6,8.6,3.6,4.7,0,8.7-2.7,10.7-6.5,1.1.3,2.2.5,3.3.5,6.1,0,11-4.9,11-11,0-3.3-1.5-6.3-3.8-8.3Z"/>
  <path class="cls-5" d="m74.9,46.5h6.1c2.5,0,4.5-2,4.5-4.5,0-2.3-1.8-4.2-4.1-4.5,0-.2.1-.4.1-.5,0-2.5-2-4.5-4.5-4.5-1.4,0-2.7.7-3.5,1.7-.1-2.6-2.3-4.7-5-4.7s-5,2.2-5,5c0,.4.1.9.2,1.3-.7-.8-1.6-1.3-2.7-1.3-1.8,0-3.2,1.3-3.5,3.1-.2,0-.4-.1-.5-.1-2.5,0-4.5,2-4.5,4.5s2,4.5,4.5,4.5h14.9v.5h3v-.5Z"/>
  <path class="cls-3" d="m68.5,29c-3,0-5.5,2.5-5.5,5.5h0c-.6-.4-1.3-.5-2-.5-1.8,0-3.4,1.3-3.9,3h-.1c-2.8,0-5,2.2-5,5s2.2,5,5,5h14.9c.3,0,.5-.2.5-.5s-.2-.5-.5-.5h-14.9c-2.2,0-4-1.8-4-4s1.8-4,4-4h.5c.2,0,.5-.2.5-.4.2-1.5,1.5-2.6,3-2.6.9,0,1.7.4,2.3,1.1.1.1.2.2.4.2.1,0,.2,0,.2-.1.2-.1.3-.3.3-.6-.1-.4-.2-.8-.2-1.2,0-2.5,2-4.5,4.5-4.5s4.3,1.9,4.5,4.3c0,.2.2.4.3.5h.2c.2,0,.3-.1.4-.2.8-1,1.9-1.5,3.1-1.5,2.2,0,4,1.8,4,4v.4c0,.1,0,.3.1.4s.2.2.3.2c2.1.2,3.6,1.9,3.6,4s-1.8,4-4,4h-6.1c-.3,0-.5.2-.5.5s.2.5.5.5h6.1c2.8,0,5-2.2,5-5,0-2.4-1.7-4.4-4-4.9v-.1c0-2.8-2.2-5-5-5-1.2,0-2.3.4-3.2,1.2-.6-2.4-2.7-4.2-5.3-4.2h0Z"/>
  <path class="cls-3" d="m67,36c-1.4,0-2.6,1-2.9,2.3-.4-.2-.8-.3-1.2-.3-1.2,0-2.2.9-2.4,2.1-.2,0-.4-.1-.6-.1-1.5,0-2.8,1.2-2.9,2.7,0,.1.1.3.2.3h0c.1,0,.2-.1.2-.2.1-1.3,1.2-2.3,2.4-2.3.2,0,.5,0,.7.1h.1c.07,0,.13-.03.2-.1.1,0,.1-.1.1-.2,0-1,.8-1.9,1.9-1.9.4,0,.9.2,1.2.5,0,0,.1.1.2.1h.1c.1,0,.1-.1.2-.2.1-1.3,1.2-2.3,2.5-2.3.2,0,.4,0,.7.1h.1c.1,0,.2-.1.2-.2s0-.3-.2-.3c-.3-.1-.5-.1-.8-.1h0Zm13.9,1.5c-1.3,0-2.5.9-2.9,2.2,0,.1,0,.3.2.3h.1c.1,0,.2-.1.2-.2.3-1.1,1.3-1.8,2.4-1.8h.3c.1,0,.2-.1.2-.2s-.1-.3-.2-.3c0,0-.3,0-.3,0Z"/>
  <path class="cls-2" d="m10.4,37H.5c-.3,0-.5-.2-.5-.5s.2-.5.5-.5h9.9c.3,0,.5.2.5.5s-.2.5-.5.5Zm3.1,0h-1c-.3,0-.5-.2-.5-.5s.2-.5.5-.5h1c.3,0,.5.2.5.5s-.2.5-.5.5Zm5,2h-9c-.3,0-.5-.2-.5-.5s.2-.5.5-.5h9c.3,0,.5.2.5.5s-.2.5-.5.5Zm-11,0h-1c-.3,0-.5-.2-.5-.5s.2-.5.5-.5h1c.3,0,.5.2.5.5s-.2.5-.5.5Zm-3,0h-2c-.3,0-.5-.2-.5-.5s.2-.5.5-.5h2c.3,0,.5.2.5.5s-.2.5-.5.5Zm6,2h-2c-.3,0-.5-.2-.5-.5s.2-.5.5-.5h2c.3,0,.5.2.5.5s-.2.5-.5.5Zm3-9h-1c-.3,0-.5.2-.5.5s.2.5.5.5h1c.3,0,.5-.2.5-.5s-.2-.5-.5-.5Zm0,2h-5c-.3,0-.5.2-.5.5s.2.5.5.5h5c.3,0,.5-.2.5-.5s-.2-.5-.5-.5Zm5,2h-3c-.3,0-.5.2-.5.5s.2.5.5.5h3c.3,0,.5-.2.5-.5s-.2-.5-.5-.5Z"/>
  <path class="cls-2" d="m67.5,10h-10c-.3,0-.5-.2-.5-.5s.2-.5.5-.5h10c.3,0,.5.2.5.5s-.2.5-.5.5Zm4,0h-2c-.3,0-.5-.2-.5-.5s.2-.5.5-.5h2c.3,0,.5.2.5.5s-.2.5-.5.5Zm5,2h-10c-.3,0-.5-.2-.5-.5s.2-.5.5-.5h10c.3,0,.5.2.5.5s-.2.5-.5.5Zm-12,0h-1c-.3,0-.5-.2-.5-.5s.2-.5.5-.5h1c.3,0,.5.2.5.5s-.2.5-.5.5Zm-3.1,0h-1.9c-.3,0-.5-.2-.5-.5s.2-.5.5-.5h1.9c.3,0,.5.2.5.5s-.2.5-.5.5Zm9.1-4h-5c-.3,0-.5-.2-.5-.5s.2-.5.5-.5h5c.3,0,.5.2.5.5s-.2.5-.5.5Zm-3,6h-2c-.3,0-.5-.2-.5-.5s.2-.5.5-.5h2c.3,0,.5.2.5.5s-.2.5-.5.5Z"/>
  <path class="cls-1" d="m32,57.3c-4,0-7.3-3.3-7.3-7.3v-28c0-4,3.3-7.3,7.3-7.3h28c4,0,7.3,3.3,7.3,7.3v28c0,4-3.3,7.3-7.3,7.3h-28Z"/>
  <path class="cls-3" d="m60,15.4c3.6,0,6.6,3,6.6,6.6v28c0,3.6-3,6.6-6.6,6.6h-28c-3.6,0-6.6-3-6.6-6.6v-28c0-3.6,3-6.6,6.6-6.6h28m0-1.4h-28c-4.4,0-8,3.6-8,8v28c0,4.4,3.6,8,8,8h28c4.4,0,8-3.6,8-8v-28c0-4.4-3.6-8-8-8h0Z"/>
  <path class="cls-3" d="m63.4,33.5c-.3,0-.5-.2-.5-.5v-3.7c0-.3.2-.5.5-.5s.5.2.5.5v3.7c0,.3-.2.5-.5.5Z"/>
  <path class="cls-3" d="m63.5,27.1c-.3,0-.5-.2-.5-.5v-1.9c0-.3.2-.5.5-.5s.5.2.5.5v1.9c0,.2-.2.5-.5.5Z"/>
  <path class="cls-3" d="m59.3,53.9h-26.5c-2.6,0-4.7-2.1-4.7-4.7v-26.5c0-2.6,2.1-4.7,4.7-4.7h24c.3,0,.5.2.5.5s-.3.5-.5.5h-24c-2.1,0-3.7,1.7-3.7,3.7v26.4c0,2.1,1.7,3.7,3.7,3.7h26.4c2.1,0,3.7-1.7,3.7-3.7v-13.5c0-.3.2-.5.5-.5s.5.2.5.5v13.6c.1,2.6-2,4.7-4.6,4.7Z"/>
  <g>
    <path class="cls-4" d="m48.2,44.3c0,.9.9,1.4,2.9,1.4v1.8h-10.2v-1.8c1.9,0,2.8-.5,2.8-1.4v-9.4c0-.9-.9-1.4-2.8-1.4v-1.8h7.3s0,12.6,0,12.6Zm.4-17.7c0,.7-.3,1.3-.8,1.9-.5.5-1.2.8-2,.8-.4,0-.8-.1-1.1-.2s-.6-.3-.9-.6c-.3-.2-.5-.5-.6-.8-.2-.3-.2-.7-.2-1,0-.7.3-1.4.8-1.9.6-.5,1.2-.8,2-.8s1.4.3,2,.8c.6.4.8,1,.8,1.8Z"/>
    <path class="cls-3" d="m51.6,48h-11.2v-2.8h.5c1.1,0,2.3-.2,2.3-.9v-9.4c0-.6-.8-.9-2.3-.9h-.5v-2.8h8.3v13.1c0,.2,0,.3.1.4.2.2.7.5,2.2.5h.5v2.8s.1,0,.1,0Zm-10.2-1h9.2v-.8c-1.2-.1-2-.3-2.5-.8-.3-.3-.4-.7-.4-1.1v-12h-6.3v.7c1.9.1,2.8.7,2.8,1.9v9.4c0,1.2-1,1.8-2.8,1.9,0,0,0,.8,0,.8Zm4.4-17.3c-.5,0-.9-.1-1.3-.3s-.7-.4-1-.7-.5-.6-.7-1-.3-.8-.3-1.3c0-.9.3-1.6,1-2.2s1.4-.9,2.3-.9,1.7.3,2.3.9c.7.6,1,1.4,1,2.2,0,.9-.3,1.6-1,2.2-.6.8-1.3,1.1-2.3,1.1Zm0-5.3c-.6,0-1.2.2-1.7.6s-.7.9-.7,1.5c0,.3.1.6.2.8.1.3.3.5.5.7s.5.4.7.5c.3.1.6.2.9.2.7,0,1.2-.2,1.6-.6s.7-.9.7-1.5-.2-1.1-.7-1.5c-.3-.5-.8-.7-1.5-.7Z"/>
  </g>
  <g>
    <path class="cls-5" d="m31.5,59.5h3.5c1.9,0,3.5-1.6,3.5-3.5,0-1.8-1.3-3.2-3.1-3.5,0-.2.1-.4.1-.5,0-1.9-1.6-3.5-3.5-3.5-1,0-2,.5-2.6,1.2-.4-1.8-2-3.2-3.9-3.2-2.2,0-4,1.8-4,4,0,.2,0,.4.1.6-.4-.3-1-.6-1.6-.6-1.2,0-2.2.9-2.5,2.1-.2,0-.4-.1-.5-.1-1.9,0-3.5,1.6-3.5,3.5s1.6,3.5,3.5,3.5h7.5v.5h7v-.5Z"/>
    <path class="cls-3" d="m33.3,55c-.1,0-.3-.1-.3-.3,0-1.2,1-2.2,2.2-2.2,0,0,.7,0,1.2.1.1,0,.2.2.2.3s-.2.2-.3.2c-.4-.1-1.1-.1-1.1-.1-.9,0-1.7.8-1.7,1.7,0,.2-.1.3-.2.3Zm-6.8,4c-.28,0-.5.22-.5.5s.22.5.5.5.5-.22.5-.5-.22-.5-.5-.5Z"/>
    <path class="cls-3" d="m35,60h-3.5c-.3,0-.5-.2-.5-.5s.2-.5.5-.5h3.5c1.7,0,3-1.3,3-3,0-1.5-1.1-2.8-2.6-3-.1,0-.3-.1-.3-.2s-.1-.2-.1-.4v-.5c0-1.7-1.3-3-3-3-.8,0-1.6.4-2.2,1-.1.1-.3.2-.5.1-.2,0-.3-.2-.4-.4-.3-1.6-1.8-2.8-3.4-2.8-1.9,0-3.5,1.6-3.5,3.5v.4c0,.2-.1.4-.2.5s-.4.1-.6,0c-.3,0-.8-.2-1.2-.2-1,0-1.8.7-2,1.6,0,.3-.3.4-.6.4h-.5c-1.7,0-3,1.3-3,3s1.3,3,3,3h7.5c.3,0,.5.2.5.5s-.1.5-.4.5h-7.5c-2.2,0-4-1.8-4-4s1.8-4,4-4h.2c.4-1.2,1.5-2,2.8-2,.3,0,.7.1,1,.2.2-2.3,2.1-4.2,4.5-4.2,1.8,0,3.5,1.1,4.2,2.8.7-.5,1.5-.8,2.3-.8,2.2,0,4,1.8,4,4v.1c1.7.4,3,2,3,3.9,0,2.2-1.8,4-4,4Z"/>
    <path class="cls-3" d="m29.5,59h-1c-.3,0-.5.2-.5.5s.2.5.5.5h1c.3,0,.5-.2.5-.5s-.2-.5-.5-.5Z"/>
  </g>
</svg>