<?xml version="1.0" encoding="UTF-8"?>
<svg id="Layer_1" data-name="Layer 1" xmlns="http://www.w3.org/2000/svg" xmlns:xlink="http://www.w3.org/1999/xlink" viewBox="0 0 1415.76 425.5">
  <defs>
    <style>
      .cls-1 {
        fill: url(#linear-gradient);
      }
    </style>
    <linearGradient id="linear-gradient" x1="0" y1="207.47" x2="1415.76" y2="207.47" gradientUnits="userSpaceOnUse">
      <stop offset="0" stop-color="#3b9fee"/>
      <stop offset=".08" stop-color="#4299ee"/>
      <stop offset=".2" stop-color="#5688f0"/>
      <stop offset=".34" stop-color="#776df3"/>
      <stop offset=".5" stop-color="#a548f7"/>
      <stop offset=".68" stop-color="#df19fc"/>
      <stop offset=".76" stop-color="#f0f"/>
      <stop offset=".8" stop-color="#f0f"/>
      <stop offset="1" stop-color="#f0f"/>
    </linearGradient>
  </defs>
  <path class="cls-1" d="m125.03,285.5c-23.99,0-45.42-5.4-64.31-16.19-18.89-10.79-33.73-25.63-44.52-44.52C5.4,205.9,0,184.47,0,160.48s5.4-45.87,16.19-64.76c10.79-18.89,25.64-33.73,44.52-44.52,18.89-10.79,40.32-16.19,64.31-16.19s45.35,5.4,64.09,16.19c18.73,10.79,33.51,25.63,44.3,44.52,10.79,18.89,16.34,40.48,16.64,64.76,0,23.99-5.47,45.42-16.42,64.31-10.95,18.89-25.79,33.73-44.52,44.52-18.74,10.79-40.1,16.19-64.09,16.19Zm0-31.48c17.39,0,32.98-4.05,46.77-12.14,13.79-8.1,24.58-19.18,32.38-33.28,7.79-14.09,11.69-30.13,11.69-48.12s-3.9-34.1-11.69-48.35c-7.8-14.24-18.59-25.41-32.38-33.51-13.79-8.1-29.39-12.14-46.77-12.14s-32.99,4.05-46.77,12.14c-13.79,8.1-24.67,19.27-32.61,33.51-7.95,14.24-11.92,30.36-11.92,48.35s3.97,34.03,11.92,48.12c7.94,14.1,18.81,25.19,32.61,33.28,13.79,8.09,29.38,12.14,46.77,12.14Z"/>
  <path class="cls-1" d="m334.6,283.26c-5.4,0-9.6-1.5-12.59-4.5-3-2.99-4.5-7.2-4.5-12.59V54.34c0-5.4,1.5-9.59,4.5-12.59,2.99-2.99,7.2-4.5,12.59-4.5s9.59,1.5,12.59,4.5c2.99,3,4.5,7.2,4.5,12.59v211.83c0,5.4-1.5,9.6-4.5,12.59-3,3-7.2,4.5-12.59,4.5Zm-2.7-151.56c.9-18.59,5.77-35.23,14.62-49.92,8.84-14.69,20.39-26.23,34.63-34.63,14.24-8.39,30.06-12.59,47.45-12.59,13.79,0,24.43,1.95,31.93,5.85,7.49,3.9,10.34,9.6,8.54,17.09-1.2,4.5-3.23,7.5-6.07,8.99-2.85,1.5-6.3,2.1-10.34,1.8-4.05-.29-8.62-.6-13.72-.9-16.79-1.5-31.71.23-44.75,5.17-13.04,4.95-23.39,12.52-31.03,22.71-7.65,10.2-11.47,22.34-11.47,36.43h-19.79Z"/>
  <path class="cls-1" d="m617.04,285.5c-24.29,0-45.8-5.32-64.54-15.96-18.74-10.64-33.44-25.41-44.07-44.3-10.65-18.89-15.97-40.48-15.97-64.76s5.02-46.25,15.07-64.99c10.04-18.73,23.91-33.51,41.6-44.3,17.69-10.79,38.07-16.19,61.16-16.19s42.65,5.17,59.59,15.52c16.94,10.34,30.06,24.67,39.35,42.95,9.29,18.29,13.94,39.13,13.94,62.51,0,4.8-1.5,8.62-4.5,11.47-3,2.85-6.9,4.27-11.69,4.27h-191.14v-28.78h194.74l-19.34,13.94c.29-17.39-2.85-32.98-9.44-46.77-6.6-13.79-15.97-24.58-28.11-32.38-12.14-7.79-26.61-11.69-43.4-11.69s-32.09,4.05-44.97,12.14c-12.89,8.1-22.87,19.27-29.91,33.51-7.05,14.24-10.57,30.51-10.57,48.8s3.97,34.48,11.92,48.57c7.94,14.1,18.81,25.19,32.61,33.28,13.79,8.1,29.68,12.14,47.67,12.14,10.79,0,21.66-1.87,32.6-5.62,10.94-3.75,19.71-8.47,26.31-14.17,3.29-2.7,7.04-4.12,11.24-4.27,4.2-.15,7.79.98,10.79,3.37,3.89,3.6,5.92,7.5,6.07,11.69.15,4.2-1.57,7.8-5.17,10.79-9.89,8.4-22.49,15.37-37.78,20.91-15.29,5.55-29.98,8.32-44.07,8.32Z"/>
  <path class="cls-1" d="m881.04,285.5c-23.69,0-44.68-5.32-62.96-15.96-18.29-10.64-32.61-25.41-42.95-44.3s-15.52-40.48-15.52-64.76,5.4-46.32,16.19-65.21c10.79-18.89,25.63-33.65,44.52-44.3,18.89-10.64,40.32-15.97,64.31-15.97s45.8,5.33,64.54,15.97c18.73,10.65,33.43,25.41,44.07,44.3,10.64,18.89,16.11,40.63,16.42,65.21l-20.24,10.79c0,22.19-4.65,41.9-13.94,59.14-9.3,17.25-22.11,30.74-38.45,40.48-16.34,9.75-35.01,14.62-55.99,14.62Zm4.5,94.9c-23.69,0-44.52-4.43-62.51-13.27-17.99-8.85-32.83-20.91-44.52-36.2-3.3-3.6-4.72-7.5-4.27-11.69.45-4.2,2.62-7.65,6.52-10.34,3.89-2.7,8.24-3.6,13.04-2.7,4.79.9,8.54,3.15,11.24,6.75,8.69,10.79,19.86,19.49,33.51,26.08,13.64,6.59,29.46,9.89,47.45,9.89,16.79,0,31.93-4.05,45.42-12.14,13.49-8.09,24.21-19.49,32.16-34.18,7.94-14.69,11.92-31.93,11.92-51.72v-68.36l13.04-26.08,21.14,4.05v91.75c0,24.29-5.4,46.1-16.19,65.44-10.79,19.34-25.49,34.63-44.07,45.87-18.59,11.24-39.88,16.87-63.86,16.87Zm-.9-126.38c17.69,0,33.35-3.97,47-11.92,13.64-7.94,24.36-18.96,32.16-33.06,7.79-14.09,11.69-30.28,11.69-48.57s-3.9-34.55-11.69-48.8c-7.8-14.24-18.52-25.33-32.16-33.28-13.65-7.94-29.31-11.92-47-11.92s-33.43,3.98-47.22,11.92c-13.79,7.95-24.59,19.04-32.38,33.28-7.8,14.24-11.69,30.51-11.69,48.8s3.89,34.48,11.69,48.57c7.79,14.1,18.59,25.12,32.38,33.06,13.79,7.95,29.53,11.92,47.22,11.92Z"/>
  <path class="cls-1" d="m1189.1,285.5c-23.99,0-45.42-5.4-64.31-16.19-18.89-10.79-33.73-25.63-44.52-44.52-10.79-18.89-16.19-40.32-16.19-64.31s5.4-45.87,16.19-64.76c10.79-18.89,25.63-33.73,44.52-44.52,18.89-10.79,40.32-16.19,64.31-16.19s45.35,5.4,64.09,16.19c18.73,10.79,33.51,25.63,44.3,44.52,10.79,18.89,16.34,40.48,16.64,64.76,0,23.99-5.47,45.42-16.42,64.31-10.95,18.89-25.79,33.73-44.52,44.52-18.74,10.79-40.1,16.19-64.09,16.19Zm0-31.48c17.39,0,32.98-4.05,46.77-12.14,13.79-8.1,24.58-19.18,32.38-33.28,7.79-14.09,11.69-30.13,11.69-48.12s-3.9-34.1-11.69-48.35c-7.8-14.24-18.59-25.41-32.38-33.51-13.79-8.1-29.39-12.14-46.77-12.14s-32.99,4.05-46.77,12.14c-13.79,8.1-24.67,19.27-32.61,33.51-7.95,14.24-11.92,30.36-11.92,48.35s3.97,34.03,11.92,48.12c7.94,14.1,18.81,25.19,32.61,33.28,13.79,8.09,29.38,12.14,46.77,12.14Z"/>
  <path class="cls-1" d="m1389.68,290.45c-7.2,0-13.34-2.55-18.44-7.65-5.1-5.09-7.65-11.24-7.65-18.44s2.62-13.79,7.87-18.89c5.24-5.09,11.31-7.65,18.21-7.65s13.34,2.63,18.44,7.87c5.09,5.25,7.65,11.47,7.65,18.66s-2.47,12.97-7.42,18.21c-4.95,5.24-11.17,7.87-18.67,7.87Z"/>
</svg>