<?xml version="1.0" encoding="UTF-8"?>
<svg id="Layer_1" data-name="Layer 1" xmlns="http://www.w3.org/2000/svg" viewBox="0 0 874.68 210.61">
  <defs>
    <style>
      .cls-1 {
        fill: #007ad8;
      }

      .cls-2 {
        fill: #282828;
      }
    </style>
  </defs>
  <g>
    <path class="cls-2" d="M46.44,163.22L0,54.5H33.08l39.29,94.12h-19.57L92.88,54.5h30.44l-46.6,108.72h-30.29Z"/>
    <path class="cls-2" d="M125.8,163.22V54.5h30.75v108.72h-30.75Z"/>
    <path class="cls-2" d="M220.7,165.39c-8.6,0-16.52-1.37-23.76-4.12-7.25-2.74-13.57-6.63-18.95-11.65-5.39-5.02-9.58-11-12.58-17.94-3-6.94-4.5-14.55-4.5-22.83s1.5-15.89,4.5-22.83c3-6.94,7.2-12.92,12.58-17.94,5.38-5.02,11.7-8.9,18.95-11.65,7.25-2.74,15.17-4.12,23.76-4.12,10.04,0,19.03,1.74,26.95,5.2,7.92,3.47,14.52,8.57,19.8,15.3l-19.57,17.71c-3.52-4.14-7.4-7.3-11.65-9.47-4.25-2.17-8.91-3.26-13.98-3.26-4.45,0-8.54,.73-12.27,2.17-3.73,1.45-6.91,3.55-9.55,6.29-2.64,2.74-4.71,6.03-6.21,9.86-1.5,3.83-2.25,8.08-2.25,12.74s.75,8.91,2.25,12.74c1.5,3.83,3.57,7.12,6.21,9.86,2.64,2.74,5.82,4.84,9.55,6.29,3.73,1.45,7.82,2.17,12.27,2.17,5.07,0,9.73-1.09,13.98-3.26,4.24-2.17,8.13-5.38,11.65-9.63l19.57,17.71c-5.28,6.73-11.88,11.86-19.8,15.38-7.92,3.52-16.91,5.28-26.95,5.28Z"/>
    <path class="cls-2" d="M271.64,163.22V54.5h30.29v108.72h-30.29Zm27.34-24.07l-1.71-34.48,46.75-50.17h33.7l-46.28,50.48-17.24,17.86-15.22,16.31Zm45.51,24.07l-35.41-44.89,20.04-21.43,51.1,66.32h-35.72Z"/>
    <path class="cls-2" d="M419.04,163.22v-45.97l7.14,18.48-48.77-81.23h32.62l34.95,58.87h-18.64l35.26-58.87h29.82l-48.3,81.23,6.68-18.48v45.97h-30.75Z"/>
    <path class="cls-1" d="M544.92,52.95c4.45,0,8.75,.56,12.92,1.67,4.17,1.11,7.92,2.78,11.26,5,3.2,2.08,5.63,4.48,7.3,7.19,1.67,2.71,2.5,5.66,2.5,8.86,0,3.75-1.04,6.64-3.13,8.65-2.08,2.02-4.73,3.02-7.92,3.02s-5.73-.9-8.03-2.71c-2.29-1.8-3.44-4.38-3.44-7.71s.87-5.76,2.61-7.71c1.74-1.94,3.78-3.2,6.15-3.75-1.39-2.5-3.86-4.59-7.4-6.25-3.54-1.67-7.33-2.5-11.36-2.5-3.48,0-6.95,.83-10.42,2.5-3.48,1.67-6.67,4.41-9.59,8.23-2.92,3.82-5.28,9.04-7.09,15.63-1.81,6.6-2.71,14.84-2.71,24.7,0,12.23,1.39,21.96,4.17,29.18,2.78,7.23,6.43,12.4,10.94,15.53,4.51,3.13,9.48,4.69,14.9,4.69,3.61,0,7.3-.69,11.05-2.08,3.75-1.39,7.3-3.65,10.63-6.77,3.34-3.13,6.18-7.33,8.55-12.61l3.96,1.46c-1.39,4.45-3.68,8.93-6.88,13.45-3.2,4.52-7.37,8.23-12.51,11.15-5.14,2.92-11.46,4.38-18.97,4.38-8.62,0-16.4-2.22-23.35-6.67-6.95-4.45-12.47-10.8-16.57-19.07-4.1-8.27-6.15-18.1-6.15-29.5s2.05-21.43,6.15-30.12c4.1-8.68,9.83-15.49,17.2-20.43,7.36-4.93,15.77-7.4,25.22-7.4Z"/>
    <path class="cls-1" d="M621.62,0V77.96c3.61-9.45,8.65-15.98,15.11-19.59,6.46-3.61,13.24-5.42,20.32-5.42,5.28,0,9.69,.7,13.24,2.08,3.54,1.39,6.49,3.34,8.86,5.84,2.64,2.78,4.51,6.25,5.63,10.42,1.11,4.17,1.67,9.8,1.67,16.88v55.66c0,5.84,1.21,9.8,3.65,11.88,2.43,2.08,6.49,3.13,12.19,3.13v4.38c-2.36-.14-5.98-.31-10.84-.52-4.87-.21-9.59-.31-14.17-.31s-9.07,.1-13.44,.31c-4.38,.21-7.68,.38-9.9,.52v-4.38c5,0,8.55-1.04,10.63-3.13s3.13-6.04,3.13-11.88v-60.24c0-4.31-.35-8.27-1.04-11.88-.7-3.61-2.26-6.53-4.69-8.75-2.43-2.22-6.15-3.34-11.15-3.34-5.7,0-10.74,1.6-15.11,4.79-4.38,3.2-7.82,7.64-10.32,13.34-2.5,5.7-3.75,12.23-3.75,19.59v46.48c0,5.84,1.04,9.8,3.13,11.88s5.63,3.13,10.63,3.13v4.38c-2.22-.14-5.52-.31-9.9-.52-4.38-.21-8.86-.31-13.44-.31s-9.31,.1-14.17,.31c-4.87,.21-8.48,.38-10.84,.52v-4.38c5.7,0,9.76-1.04,12.19-3.13,2.43-2.08,3.65-6.04,3.65-11.88V25.01c0-6.25-1.11-10.87-3.34-13.86-2.22-2.99-6.39-4.48-12.51-4.48V2.29c4.45,.42,8.75,.62,12.92,.62s7.89-.24,11.57-.73c3.68-.49,7.05-1.21,10.11-2.19Z"/>
    <path class="cls-1" d="M735.85,164.68c-5.7,0-10.63-1.08-14.8-3.23-4.17-2.15-7.33-5.17-9.48-9.07-2.16-3.89-3.23-8.41-3.23-13.55,0-6.11,1.42-11.12,4.27-15.01,2.85-3.89,6.5-7.02,10.94-9.38,4.45-2.36,9.14-4.34,14.07-5.94,4.93-1.6,9.62-3.13,14.07-4.59,4.45-1.46,8.09-3.16,10.94-5.11,2.85-1.94,4.27-4.51,4.27-7.71v-12.92c0-5.84-.87-10.28-2.61-13.34-1.74-3.06-4.06-5.11-6.98-6.15-2.92-1.04-6.18-1.56-9.8-1.56s-7.19,.49-11.15,1.46c-3.96,.97-7.12,2.99-9.48,6.04,2.64,.56,4.93,1.95,6.88,4.17,1.94,2.22,2.92,5.07,2.92,8.55s-1.11,6.22-3.33,8.23c-2.22,2.02-5.07,3.02-8.55,3.02-4.03,0-6.98-1.28-8.86-3.86-1.88-2.57-2.81-5.45-2.81-8.65,0-3.61,.9-6.53,2.71-8.75,1.8-2.22,4.1-4.31,6.88-6.25,3.2-2.22,7.33-4.13,12.4-5.73,5.07-1.6,10.8-2.4,17.2-2.4,5.7,0,10.56,.66,14.59,1.98,4.03,1.32,7.36,3.23,10.01,5.73,3.61,3.33,5.97,7.4,7.09,12.19,1.11,4.79,1.67,10.53,1.67,17.2v57.95c0,3.47,.52,5.98,1.56,7.5,1.04,1.53,2.67,2.29,4.9,2.29,1.53,0,2.99-.35,4.38-1.04,1.39-.69,3.05-1.8,5-3.34l2.29,3.54c-2.92,2.22-5.7,4.06-8.34,5.52-2.64,1.46-6.18,2.19-10.63,2.19-4.03,0-7.37-.7-10.01-2.08-2.64-1.39-4.62-3.44-5.94-6.15-1.32-2.71-1.98-6.15-1.98-10.32-3.75,6.25-8.23,10.91-13.45,13.97-5.21,3.06-11.08,4.59-17.61,4.59Zm7.5-8.34c4.59,0,8.86-1.32,12.82-3.96,3.96-2.64,7.54-6.6,10.74-11.88v-40.86c-1.67,2.36-4.1,4.35-7.3,5.94-3.2,1.6-6.67,3.2-10.42,4.79-3.75,1.6-7.33,3.48-10.74,5.63-3.41,2.16-6.22,4.97-8.44,8.44-2.22,3.48-3.33,7.99-3.33,13.55s1.49,10.01,4.48,13.34c2.99,3.33,7.05,5,12.19,5Z"/>
    <path class="cls-1" d="M838.41,21.26V56.07h30.85v4.17h-30.85v80.67c0,6.53,1.18,11.12,3.54,13.76,2.36,2.64,5.63,3.96,9.8,3.96s7.78-1.7,10.84-5.11c3.05-3.4,5.7-9.14,7.92-17.2l4.17,1.04c-1.39,8.06-4.14,14.87-8.23,20.43-4.1,5.56-10.39,8.34-18.87,8.34-4.73,0-8.62-.59-11.67-1.77-3.06-1.18-5.77-2.88-8.13-5.11-3.06-3.2-5.18-7.02-6.36-11.46-1.18-4.45-1.77-10.35-1.77-17.72V60.24h-20.01v-4.17h20.01V24.18c3.47-.14,6.81-.42,10.01-.83,3.2-.42,6.11-1.11,8.75-2.08Z"/>
  </g>
  <g>
    <path d="M3.71,210.41v-22.75H12.22c1.93,0,3.59,.31,4.97,.93,1.39,.62,2.45,1.51,3.2,2.67,.75,1.16,1.12,2.56,1.12,4.21s-.37,2.99-1.12,4.14-1.81,2.05-3.2,2.67c-1.39,.62-3.04,.93-4.97,.93H5.04l1.07-1.11v8.32H3.71Zm2.41-8.13l-1.07-1.14h7.12c2.28,0,4-.5,5.18-1.5,1.18-1,1.77-2.39,1.77-4.19s-.59-3.23-1.77-4.23c-1.18-1-2.91-1.5-5.18-1.5H5.04l1.07-1.14v13.69Zm13.13,8.13l-5.85-8.26h2.6l5.88,8.26h-2.63Z"/>
    <path d="M32.05,208.33h13.69v2.08H29.65v-22.75h15.6v2.08h-13.2v18.59Zm-.26-10.5h12.03v2.05h-12.03v-2.05Z"/>
    <path d="M63.65,210.61c-1.71,0-3.29-.29-4.75-.86-1.45-.57-2.71-1.38-3.77-2.42-1.06-1.04-1.89-2.26-2.49-3.67-.6-1.41-.89-2.95-.89-4.62s.3-3.21,.89-4.62c.6-1.41,1.43-2.63,2.5-3.67,1.07-1.04,2.33-1.85,3.79-2.42,1.45-.57,3.03-.86,4.75-.86s3.2,.28,4.65,.83c1.45,.55,2.68,1.38,3.67,2.49l-1.53,1.53c-.93-.95-1.96-1.64-3.09-2.06-1.13-.42-2.34-.63-3.64-.63-1.37,0-2.63,.23-3.8,.7-1.17,.47-2.19,1.13-3.06,1.98-.87,.86-1.54,1.85-2.03,2.99-.49,1.14-.73,2.39-.73,3.75s.24,2.62,.73,3.75c.49,1.14,1.16,2.13,2.03,2.99,.87,.86,1.89,1.52,3.06,1.98,1.17,.47,2.44,.7,3.8,.7s2.51-.22,3.64-.65c1.13-.43,2.16-1.13,3.09-2.08l1.53,1.53c-1,1.11-2.22,1.94-3.67,2.5-1.45,.56-3.01,.85-4.68,.85Z"/>
    <path d="M81.98,210.41h-2.41v-22.75h2.41v22.75Zm14.46-10.5h-14.72v-2.11h14.72v2.11Zm-.23-12.25h2.37v22.75h-2.37v-22.75Z"/>
    <path d="M112.86,210.41v-20.67h-8v-2.08h18.4v2.08h-8v20.67h-2.41Z"/>
    <path d="M135.45,210.61c-1.69,0-3.31-.28-4.86-.83-1.55-.55-2.75-1.26-3.59-2.13l.94-1.85c.8,.78,1.88,1.44,3.23,1.97,1.35,.53,2.78,.8,4.27,.8s2.6-.18,3.49-.54c.9-.36,1.56-.84,1.98-1.45,.42-.61,.63-1.28,.63-2.01,0-.89-.25-1.6-.76-2.15s-1.18-.97-2-1.28c-.82-.31-1.73-.59-2.73-.83-1-.24-1.99-.49-2.99-.76-1-.27-1.91-.63-2.75-1.09-.83-.46-1.51-1.06-2.02-1.8-.51-.75-.76-1.73-.76-2.94,0-1.13,.3-2.16,.89-3.1,.6-.94,1.51-1.7,2.75-2.28,1.23-.57,2.82-.86,4.75-.86,1.28,0,2.55,.18,3.8,.54,1.26,.36,2.34,.85,3.25,1.48l-.81,1.92c-.98-.65-2.01-1.13-3.1-1.43-1.09-.3-2.15-.46-3.17-.46-1.37,0-2.49,.18-3.38,.55-.89,.37-1.54,.86-1.97,1.48-.42,.62-.63,1.32-.63,2.1,0,.89,.25,1.6,.76,2.15,.51,.54,1.18,.96,2.02,1.27,.83,.3,1.75,.57,2.75,.81,1,.24,1.99,.5,2.97,.78,.99,.28,1.9,.64,2.73,1.09,.83,.44,1.51,1.04,2.02,1.77,.51,.74,.76,1.7,.76,2.89,0,1.11-.3,2.13-.91,3.07-.61,.94-1.53,1.7-2.78,2.28-1.25,.57-2.84,.86-4.79,.86Z"/>
    <path d="M151.6,210.41v-22.75h8.52c1.93,0,3.59,.31,4.97,.93,1.39,.62,2.45,1.51,3.2,2.67,.75,1.16,1.12,2.56,1.12,4.21s-.37,2.99-1.12,4.14-1.81,2.05-3.2,2.67c-1.39,.62-3.04,.93-4.97,.93h-7.18l1.07-1.11v8.32h-2.41Zm2.41-8.13l-1.07-1.14h7.12c2.28,0,4-.5,5.18-1.5,1.18-1,1.77-2.39,1.77-4.19s-.59-3.23-1.77-4.23c-1.18-1-2.91-1.5-5.18-1.5h-7.12l1.07-1.14v13.69Zm13.13,8.13l-5.85-8.26h2.6l5.88,8.26h-2.63Z"/>
    <path d="M173.9,210.41l10.4-22.75h2.37l10.4,22.75h-2.54l-9.56-21.36h.98l-9.56,21.36h-2.5Zm4.1-6.08l.72-1.95h13.23l.72,1.95h-14.66Z"/>
    <path d="M206.57,210.41v-20.67h-8v-2.08h18.4v2.08h-8v20.67h-2.41Z"/>
    <path d="M234.2,210.41v-22.75h9.26c2.43,0,4.56,.48,6.39,1.45,1.83,.96,3.26,2.3,4.27,4.01s1.53,3.68,1.53,5.92-.51,4.2-1.53,5.92-2.44,3.05-4.27,4.01c-1.83,.96-3.96,1.45-6.39,1.45h-9.26Zm2.41-2.08h6.73c2.02,0,3.76-.4,5.25-1.19,1.48-.79,2.64-1.89,3.46-3.28,.82-1.4,1.23-3.01,1.23-4.83s-.41-3.46-1.23-4.84c-.82-1.39-1.98-2.48-3.46-3.27-1.48-.79-3.23-1.19-5.25-1.19h-6.73v18.59Z"/>
    <path d="M272.65,210.61c-2.9,0-5.19-.83-6.86-2.5-1.67-1.67-2.5-4.14-2.5-7.41v-13.04h2.41v12.94c0,2.69,.61,4.67,1.82,5.95,1.21,1.28,2.93,1.92,5.14,1.92s3.95-.64,5.17-1.92c1.21-1.28,1.82-3.26,1.82-5.95v-12.94h2.34v13.04c0,3.27-.83,5.74-2.49,7.41-1.66,1.67-3.94,2.5-6.84,2.5Z"/>
    <path d="M291.67,210.41v-22.75h8.52c1.93,0,3.59,.31,4.97,.93,1.39,.62,2.45,1.51,3.2,2.67,.75,1.16,1.12,2.56,1.12,4.21s-.37,2.99-1.12,4.14c-.75,1.16-1.82,2.05-3.2,2.67s-3.04,.93-4.97,.93h-7.18l1.07-1.11v8.32h-2.41Zm2.41-8.13l-1.07-1.14h7.12c2.28,0,4-.5,5.18-1.5,1.18-1,1.77-2.39,1.77-4.19s-.59-3.23-1.77-4.23c-1.18-1-2.91-1.5-5.18-1.5h-7.12l1.07-1.14v13.69Zm13.13,8.13l-5.85-8.26h2.6l5.88,8.26h-2.63Z"/>
    <path d="M327.49,210.61c-1.71,0-3.29-.29-4.75-.86-1.45-.57-2.71-1.38-3.77-2.42-1.06-1.04-1.89-2.26-2.49-3.67-.6-1.41-.89-2.95-.89-4.62s.3-3.21,.89-4.62c.6-1.41,1.43-2.63,2.5-3.67,1.07-1.04,2.33-1.85,3.79-2.42,1.45-.57,3.03-.86,4.75-.86s3.2,.28,4.65,.83c1.45,.55,2.68,1.38,3.67,2.49l-1.53,1.53c-.93-.95-1.96-1.64-3.09-2.06-1.13-.42-2.34-.63-3.64-.63-1.37,0-2.63,.23-3.8,.7s-2.19,1.13-3.06,1.98c-.87,.86-1.54,1.85-2.03,2.99-.49,1.14-.73,2.39-.73,3.75s.24,2.62,.73,3.75c.49,1.14,1.16,2.13,2.03,2.99,.87,.86,1.89,1.52,3.06,1.98,1.17,.47,2.44,.7,3.8,.7s2.51-.22,3.64-.65c1.13-.43,2.16-1.13,3.09-2.08l1.53,1.53c-1,1.11-2.22,1.94-3.67,2.5-1.45,.56-3.01,.85-4.68,.85Z"/>
    <path d="M345.82,210.41h-2.41v-22.75h2.41v22.75Zm14.46-10.5h-14.73v-2.11h14.73v2.11Zm-.23-12.25h2.37v22.75h-2.37v-22.75Z"/>
    <path d="M383.24,210.41v-22.75h2.41v22.75h-2.41Zm2.08-5.66l-.1-2.92,13.78-14.17h2.76l-10.04,10.53-1.37,1.46-5.04,5.1Zm14.27,5.66l-9.82-11.31,1.62-1.76,11.05,13.07h-2.86Z"/>
    <path d="M417.63,210.61c-2.9,0-5.19-.83-6.86-2.5-1.67-1.67-2.5-4.14-2.5-7.41v-13.04h2.41v12.94c0,2.69,.61,4.67,1.82,5.95,1.21,1.28,2.93,1.92,5.14,1.92s3.95-.64,5.17-1.92c1.21-1.28,1.82-3.26,1.82-5.95v-12.94h2.34v13.04c0,3.27-.83,5.74-2.49,7.41-1.66,1.67-3.94,2.5-6.84,2.5Zm-2.89-25.55c-.39,0-.72-.13-.99-.39-.27-.26-.41-.6-.41-1.01s.14-.75,.41-1.01c.27-.26,.6-.39,.99-.39,.37,0,.69,.13,.97,.39s.42,.6,.42,1.01-.14,.75-.42,1.01-.61,.39-.97,.39Zm5.79,0c-.37,0-.69-.13-.97-.39-.28-.26-.42-.6-.42-1.01s.14-.75,.42-1.01c.28-.26,.61-.39,.97-.39,.39,0,.72,.13,.99,.39,.27,.26,.41,.6,.41,1.01s-.14,.75-.41,1.01c-.27,.26-.6,.39-.99,.39Z"/>
    <path d="M436.64,210.41v-22.75h1.98l15.7,19.76h-1.04v-19.76h2.37v22.75h-1.98l-15.67-19.76h1.04v19.76h-2.41Z"/>
    <path d="M471.78,210.61c-1.69,0-3.31-.28-4.86-.83-1.55-.55-2.75-1.26-3.59-2.13l.94-1.85c.8,.78,1.88,1.44,3.23,1.97,1.35,.53,2.78,.8,4.27,.8s2.59-.18,3.49-.54c.9-.36,1.56-.84,1.98-1.45,.42-.61,.63-1.28,.63-2.01,0-.89-.25-1.6-.76-2.15-.51-.54-1.18-.97-2-1.28-.82-.31-1.73-.59-2.73-.83-1-.24-1.99-.49-2.99-.76-1-.27-1.91-.63-2.75-1.09s-1.51-1.06-2.02-1.8c-.51-.75-.76-1.73-.76-2.94,0-1.13,.3-2.16,.89-3.1,.6-.94,1.51-1.7,2.75-2.28,1.24-.57,2.82-.86,4.75-.86,1.28,0,2.55,.18,3.8,.54,1.26,.36,2.34,.85,3.25,1.48l-.81,1.92c-.98-.65-2.01-1.13-3.1-1.43-1.09-.3-2.15-.46-3.17-.46-1.37,0-2.49,.18-3.38,.55-.89,.37-1.54,.86-1.97,1.48-.42,.62-.63,1.32-.63,2.1,0,.89,.25,1.6,.76,2.15,.51,.54,1.18,.96,2.02,1.27s1.75,.57,2.75,.81c1,.24,1.99,.5,2.97,.78s1.9,.64,2.73,1.09,1.51,1.04,2.02,1.77c.51,.74,.76,1.7,.76,2.89,0,1.11-.3,2.13-.91,3.07-.61,.94-1.53,1.7-2.78,2.28s-2.84,.86-4.79,.86Z"/>
    <path d="M492.03,210.41v-20.67h-8v-2.08h18.4v2.08h-8v20.67h-2.41Z"/>
    <path d="M508.71,210.41v-22.75h2.41v20.67h12.74v2.08h-15.15Z"/>
    <path d="M530.29,210.41v-22.75h2.41v22.75h-2.41Z"/>
    <path d="M552.42,210.61c-1.71,0-3.29-.29-4.75-.86-1.45-.57-2.71-1.38-3.77-2.42-1.06-1.04-1.89-2.26-2.49-3.67-.6-1.41-.89-2.95-.89-4.62s.3-3.21,.89-4.62c.6-1.41,1.43-2.63,2.5-3.67,1.07-1.04,2.33-1.85,3.79-2.42,1.45-.57,3.03-.86,4.75-.86s3.2,.28,4.65,.83c1.45,.55,2.68,1.38,3.67,2.49l-1.53,1.53c-.93-.95-1.96-1.64-3.09-2.06-1.13-.42-2.34-.63-3.64-.63-1.37,0-2.63,.23-3.8,.7s-2.19,1.13-3.06,1.98c-.87,.86-1.54,1.85-2.03,2.99-.49,1.14-.73,2.39-.73,3.75s.24,2.62,.73,3.75c.49,1.14,1.16,2.13,2.03,2.99,.87,.86,1.89,1.52,3.06,1.98,1.17,.47,2.44,.7,3.8,.7s2.51-.22,3.64-.65c1.13-.43,2.16-1.13,3.09-2.08l1.53,1.53c-1,1.11-2.22,1.94-3.67,2.5-1.45,.56-3.01,.85-4.68,.85Z"/>
    <path d="M570.76,210.41h-2.41v-22.75h2.41v22.75Zm14.46-10.5h-14.73v-2.11h14.73v2.11Zm-.23-12.25h2.37v22.75h-2.37v-22.75Z"/>
    <path d="M599.62,208.33h13.68v2.08h-16.09v-22.75h15.6v2.08h-13.2v18.59Zm-.26-10.5h12.03v2.05h-12.03v-2.05Z"/>
    <path d="M632.35,210.41v-22.75h2.41v22.75h-2.41Z"/>
    <path d="M644.61,210.41v-22.75h1.98l15.7,19.76h-1.04v-19.76h2.37v22.75h-1.98l-15.67-19.76h1.04v19.76h-2.41Z"/>
    <path d="M677.89,210.41v-20.67h-8v-2.08h18.4v2.08h-8v20.67h-2.41Z"/>
    <path d="M696.97,208.33h13.68v2.08h-16.09v-22.75h15.6v2.08h-13.2v18.59Zm-.26-10.5h12.03v2.05h-12.03v-2.05Z"/>
    <path d="M718.75,210.41v-22.75h2.41v20.67h12.74v2.08h-15.15Z"/>
    <path d="M740.34,210.41v-22.75h2.41v20.67h12.74v2.08h-15.15Z"/>
    <path d="M761.92,210.41v-22.75h2.41v22.75h-2.41Z"/>
    <path d="M784.15,210.61c-1.73,0-3.33-.29-4.79-.86-1.46-.57-2.73-1.38-3.8-2.42-1.07-1.04-1.91-2.26-2.5-3.67-.6-1.41-.89-2.95-.89-4.62s.3-3.21,.89-4.62c.6-1.41,1.44-2.63,2.52-3.67,1.08-1.04,2.36-1.85,3.82-2.42,1.46-.57,3.06-.86,4.79-.86s3.32,.27,4.76,.81c1.44,.54,2.67,1.37,3.69,2.47l-1.5,1.53c-.95-.95-2-1.64-3.15-2.05-1.15-.41-2.38-.62-3.71-.62-1.41,0-2.7,.23-3.88,.7-1.18,.47-2.21,1.13-3.09,1.98-.88,.86-1.56,1.85-2.05,2.99-.49,1.14-.73,2.39-.73,3.75s.24,2.59,.73,3.74c.49,1.15,1.17,2.15,2.05,3.01,.88,.86,1.91,1.52,3.09,1.98,1.18,.47,2.46,.7,3.85,.7,1.3,0,2.53-.2,3.69-.58,1.16-.39,2.23-1.05,3.2-1.98l1.37,1.82c-1.08,.95-2.35,1.67-3.8,2.16s-2.97,.73-4.55,.73Zm6.05-3.19v-8.39h2.31v8.68l-2.31-.29Z"/>
    <path d="M804.14,208.33h13.68v2.08h-16.09v-22.75h15.6v2.08h-13.2v18.59Zm-.26-10.5h12.03v2.05h-12.03v-2.05Z"/>
    <path d="M825.92,210.41v-22.75h1.98l15.7,19.76h-1.04v-19.76h2.37v22.75h-1.98l-15.67-19.76h1.04v19.76h-2.41Z"/>
    <path d="M852.54,210.41v-1.66l15.8-19.93,.26,.91h-15.83v-2.08h18.04v1.66l-15.76,19.93-.29-.91h16.45v2.08h-18.66Z"/>
  </g>
</svg>